{"glyphs":{"0":{"ha":800,"x_min":51,"x_max":751,"o":"m 51 972 l 51 0 l 751 0 l 751 972 l 51 972 m 228 488 q 241 680 228 593 q 278 828 254 767 q 334 923 301 889 q 407 957 367 957 q 480 923 447 957 q 536 828 513 889 q 573 680 560 767 q 586 488 586 593 q 573 294 586 382 q 536 146 560 207 q 480 51 513 85 q 407 17 447 17 q 334 51 367 17 q 278 146 301 85 q 241 294 254 207 q 228 488 228 382 "},"1":{"ha":906,"x_min":53,"x_max":875,"o":"m 626 972 l 369 972 l 369 169 q 326 70 358 103 q 256 25 294 38 q 181 13 218 13 q 124 13 144 14 l 124 0 l 875 0 l 875 13 q 817 13 854 14 q 742 25 781 13 q 670 70 703 38 q 626 169 638 103 l 626 972 m 53 757 l 53 435 q 166 457 119 438 q 257 526 213 476 q 309 617 288 561 q 344 735 331 672 q 363 862 357 799 q 369 972 369 925 l 353 972 q 345 903 353 942 q 322 833 338 865 q 281 779 306 801 q 219 757 256 757 l 53 757 "},"2":{"ha":760,"x_min":38,"x_max":707,"o":"m 38 556 l 536 556 l 536 569 l 428 569 q 318 601 353 572 q 283 710 283 631 q 294 797 283 754 q 326 874 306 840 q 378 928 347 907 q 450 949 410 949 q 552 891 518 949 q 586 742 586 833 q 548 544 586 624 q 439 417 510 465 q 267 347 368 368 q 40 326 167 326 l 40 -8 l 694 -8 l 694 592 q 707 694 707 644 q 690 795 707 746 q 634 884 672 844 q 534 948 596 924 q 383 972 472 972 q 253 946 315 972 q 142 867 190 919 q 66 737 94 815 q 38 556 38 658 m 357 10 l 150 10 q 310 74 229 24 q 463 196 392 124 q 592 356 535 268 q 679 535 649 444 q 672 384 678 458 q 652 246 667 310 q 613 133 638 182 q 551 58 589 85 q 513 35 532 44 q 472 21 494 26 q 422 13 450 15 q 357 10 394 10 "},"3":{"ha":772,"x_min":33,"x_max":749,"o":"m 33 383 q 59 221 33 292 q 133 101 85 150 q 247 26 181 51 q 396 0 314 0 q 656 74 564 0 q 749 285 749 149 q 739 363 749 329 q 715 422 729 396 q 682 470 700 449 q 646 513 664 492 l 318 513 l 749 972 l 46 972 l 46 793 l 336 793 l 72 513 l 72 499 l 418 499 q 469 467 442 490 q 522 406 497 443 q 563 321 546 369 q 579 215 579 272 q 574 155 579 189 q 549 90 568 121 q 494 38 531 60 q 399 17 458 17 q 321 37 356 17 q 262 86 286 57 q 224 149 238 115 q 211 208 211 182 q 240 302 211 269 q 313 349 269 335 q 406 367 356 364 q 497 369 456 369 l 497 383 l 33 383 "},"4":{"ha":1013,"x_min":36,"x_max":964,"o":"m 36 393 l 36 232 l 519 232 l 519 169 l 518 169 q 475 70 507 103 q 405 25 443 38 q 330 13 367 13 q 272 13 293 14 l 272 0 l 964 0 l 964 13 q 907 13 943 14 q 833 25 871 13 q 762 68 794 38 q 717 163 729 99 l 717 251 q 740 307 721 283 q 788 347 760 331 q 851 372 815 364 q 925 381 888 381 l 925 394 l 717 394 l 717 972 l 519 972 q 487 786 514 867 q 403 638 460 706 q 258 513 347 571 q 36 393 168 454 m 519 394 l 90 393 q 253 479 182 435 q 378 574 325 524 q 467 684 432 625 q 519 814 501 743 l 519 394 "},"5":{"ha":883,"x_min":-35,"x_max":851,"o":"m 57 415 q 83 248 57 324 q 156 117 108 172 q 271 31 204 61 q 419 0 338 0 q 581 19 503 0 q 719 75 660 39 q 815 164 779 111 q 851 285 851 217 q 842 363 851 329 q 817 422 832 396 q 785 470 803 449 q 749 513 767 492 l 393 513 l 214 960 l 372 960 l 531 564 l 772 569 l 614 972 l -35 972 l 147 499 l 442 499 q 493 467 465 490 q 545 406 521 443 q 586 321 569 369 q 603 215 603 272 q 597 155 603 189 q 573 90 592 121 q 518 38 554 60 q 422 17 482 17 q 344 33 379 17 q 285 76 310 49 q 248 138 261 103 q 235 208 235 172 q 264 307 235 269 q 336 365 293 344 q 429 394 379 386 q 521 401 479 401 l 521 415 l 57 415 "},"6":{"ha":711,"x_min":39,"x_max":685,"o":"m 193 24 l 192 942 l 289 942 q 388 935 363 942 q 406 913 413 928 q 372 877 400 899 q 313 827 344 856 q 254 764 281 799 q 225 688 228 729 l 557 688 l 654 960 l 39 960 l 39 0 l 293 0 q 420 13 351 0 q 548 63 489 25 q 646 167 607 100 q 685 343 685 235 q 608 561 685 492 q 407 631 532 631 q 347 623 378 631 q 289 603 317 615 q 240 573 261 590 q 207 536 218 556 l 207 24 l 193 24 m 267 303 q 321 446 267 392 q 464 500 375 500 q 544 486 508 500 q 607 447 581 472 q 647 386 633 421 q 661 310 661 351 q 647 231 661 268 q 607 166 633 194 q 544 122 581 138 q 464 106 508 106 q 321 160 375 106 q 267 303 267 214 "},"7":{"ha":832,"x_min":43,"x_max":818,"o":"m 43 972 l 43 658 l 469 658 l 592 953 l 674 953 q 710 862 714 910 q 674 761 707 814 q 583 651 640 708 q 461 533 526 594 q 328 408 396 472 q 205 277 260 344 q 115 140 150 210 q 76 0 79 71 l 413 0 q 431 184 413 100 q 482 344 450 268 q 556 493 514 421 q 642 640 597 565 q 733 797 688 715 q 818 972 779 878 l 43 972 "},"8":{"ha":761,"x_min":35,"x_max":725,"o":"m 35 322 q 47 183 35 246 q 95 76 58 121 q 200 7 132 32 q 381 -18 268 -18 q 560 7 492 -18 q 665 76 628 32 q 713 183 701 121 q 725 322 725 246 q 702 440 725 397 q 635 503 679 482 q 708 617 690 547 q 725 778 725 686 q 700 898 725 856 q 630 961 675 940 q 522 986 585 982 q 381 990 458 990 q 239 986 303 990 q 130 961 175 982 q 60 898 85 940 q 35 778 35 856 q 53 617 35 688 q 126 503 71 547 q 58 440 82 482 q 35 322 35 397 m 250 725 q 256 826 250 781 q 278 904 263 872 q 319 954 293 936 q 382 972 344 972 q 446 954 421 972 q 485 904 471 936 q 506 826 500 872 q 511 725 511 781 q 505 623 511 669 q 484 544 499 576 q 444 494 469 513 q 379 476 418 476 q 316 494 342 476 q 276 544 290 513 q 256 623 261 576 q 250 725 250 669 m 54 322 q 70 372 54 350 q 124 408 86 393 q 224 432 161 424 q 381 440 286 440 q 541 432 478 440 q 640 408 604 424 q 691 372 676 393 q 706 322 706 350 q 691 275 706 296 q 640 239 676 254 q 541 215 604 224 q 381 207 478 207 q 224 215 286 207 q 124 239 161 224 q 70 275 86 254 q 54 322 54 296 "},"9":{"ha":996,"x_min":-7,"x_max":976,"o":"m 78 674 q 99 549 78 606 q 158 450 119 492 q 252 384 197 408 q 374 357 307 360 l -7 0 l 297 0 l 976 674 l 711 674 q 688 803 711 744 q 624 903 665 861 q 524 967 582 944 q 394 990 465 990 q 265 967 324 990 q 165 903 207 944 q 101 803 124 861 q 78 674 78 744 m 331 674 q 348 881 331 803 q 394 960 365 960 q 441 881 424 960 q 458 674 458 803 q 441 466 458 544 q 394 388 424 388 q 348 466 365 388 q 331 674 331 544 "},"\u0000":{"ha":0,"x_min":0,"x_max":0,"o":""},"\r":{"ha":463,"x_min":0,"x_max":0,"o":""}," ":{"ha":386,"x_min":0,"x_max":0,"o":""},"A":{"ha":942,"x_min":-17,"x_max":950,"o":"m 818 825 q 818 925 826 883 q 791 992 810 967 q 747 1030 772 1018 q 694 1042 721 1042 q 584 1015 639 1042 q 472 954 529 988 q 351 894 414 921 q 214 867 288 867 q 165 875 189 867 q 127 901 142 883 q 110 947 113 919 q 124 1013 107 975 l 121 1017 q 88 926 103 988 q 74 792 74 865 q 80 742 74 768 q 99 694 86 717 q 131 658 111 672 q 176 644 150 644 q 254 673 211 644 q 344 743 297 701 q 437 834 390 785 q 527 926 483 883 q 608 996 571 968 q 672 1024 646 1024 q 692 1017 685 1024 q 699 992 699 1011 q 644 883 697 940 q 510 764 590 826 q 339 633 431 701 q 168 491 247 564 q 36 341 89 418 q -17 182 -17 264 q -3 102 -17 143 q 40 29 11 61 q 112 -24 68 -3 q 217 -44 156 -44 q 306 7 257 -44 q 407 153 354 58 q 515 381 460 247 q 625 678 571 514 l 640 678 l 438 104 q 475 53 451 78 q 527 11 499 29 q 587 -17 556 -7 q 647 -28 618 -28 q 742 -2 696 -28 q 828 64 789 24 q 897 153 868 104 q 938 249 925 203 q 943 335 950 296 q 903 393 936 374 q 876 400 892 400 q 826 386 854 400 q 768 350 797 372 q 712 300 739 328 q 664 243 685 272 l 669 238 q 701 267 689 261 q 731 269 714 272 q 758 245 749 268 q 767 189 767 222 q 760 119 767 156 q 740 51 753 82 q 707 3 726 21 q 663 -7 688 -14 q 626 58 631 1 q 650 228 622 115 q 673 310 658 261 q 705 417 688 360 q 740 533 722 474 q 774 649 758 593 q 802 750 790 704 q 818 825 814 796 m 665 869 q 619 715 643 794 q 567 558 594 635 q 508 412 539 481 q 442 291 478 343 q 365 208 406 239 q 278 178 325 178 q 212 206 233 178 q 193 282 190 235 q 238 447 197 376 q 344 583 279 518 q 490 717 408 649 q 658 876 572 786 l 665 869 "},"B":{"ha":946,"x_min":-1,"x_max":936,"o":"m 161 1029 q 127 937 142 999 q 113 800 113 875 q 116 749 113 775 q 128 701 119 722 q 151 665 136 679 q 189 650 165 650 q 241 673 217 650 q 290 730 265 696 q 340 803 314 764 q 399 877 367 843 q 472 934 432 911 q 564 957 513 957 q 613 947 582 957 q 670 907 643 936 q 711 825 697 878 q 710 686 725 772 q 676 584 697 618 q 629 537 654 550 q 579 524 604 524 q 535 525 554 525 q 507 520 518 525 q 494 496 496 515 q 500 472 493 478 q 519 465 507 465 q 569 473 539 465 q 632 482 599 481 q 716 453 689 483 q 748 379 743 424 q 738 285 753 335 q 699 197 724 235 q 641 133 675 163 q 569 83 607 104 q 492 51 531 63 q 419 39 453 39 q 367 49 390 39 q 328 78 343 58 q 327 132 310 106 q 381 180 344 158 q 462 215 417 201 q 542 228 507 228 q 601 200 593 228 q 602 169 606 182 q 578 132 599 157 l 583 128 q 640 196 613 157 q 686 274 668 235 q 709 347 704 313 q 699 400 714 381 q 624 433 672 433 q 548 417 589 433 q 467 374 507 401 q 392 310 426 346 q 334 233 357 274 q 304 151 311 193 q 313 71 297 110 q 353 13 325 39 q 419 -31 382 -12 q 502 -58 457 -49 q 594 -67 547 -67 q 718 -49 657 -67 q 828 6 779 -32 q 906 103 876 44 q 936 246 936 163 q 910 380 936 329 q 842 457 883 431 q 752 492 801 483 q 658 500 703 500 q 595 498 624 500 q 550 496 567 496 l 549 503 q 602 509 567 504 q 678 527 638 514 q 763 562 719 540 q 841 617 806 583 q 899 699 876 651 q 921 810 921 746 q 913 883 921 843 q 883 959 906 924 q 823 1018 861 994 q 724 1042 785 1042 q 585 1013 647 1042 q 469 950 524 985 q 365 886 415 915 q 261 857 315 857 q 215 874 235 857 q 182 915 194 890 q 166 970 169 940 q 171 1026 163 1000 l 161 1029 m 453 803 q 372 622 410 714 q 291 458 335 531 q 190 341 247 385 q 50 301 133 297 l -1 -57 q 117 -24 64 -57 q 215 67 169 8 q 303 206 261 125 q 388 383 344 286 q 481 590 432 481 q 589 815 529 700 l 453 803 "},"C":{"ha":733,"x_min":15,"x_max":714,"o":"m 667 1003 l 658 1000 q 662 947 665 975 q 647 894 658 918 q 617 856 636 871 q 574 840 597 840 q 485 870 524 840 q 408 936 447 900 q 320 1001 368 972 q 200 1031 272 1031 q 107 1008 143 1031 q 51 953 71 986 q 23 882 31 919 q 15 814 15 844 l 15 415 q 49 246 15 322 q 144 115 83 169 q 286 30 204 60 q 464 0 368 0 l 706 0 l 706 385 l 694 385 q 668 219 694 288 q 606 106 642 150 q 530 42 569 63 q 463 22 490 22 q 360 51 407 22 q 281 126 314 79 q 228 235 247 174 q 210 364 210 297 l 210 797 q 228 872 213 843 q 263 919 243 901 q 304 942 283 936 q 338 949 325 949 q 397 926 372 949 q 440 870 421 904 q 477 797 460 836 q 517 723 494 757 q 568 667 539 689 q 640 644 597 644 q 676 658 663 644 q 699 693 690 672 q 710 739 707 714 q 714 788 714 764 q 699 915 714 857 q 667 1003 685 974 "},"E":{"ha":840,"x_min":4,"x_max":815,"o":"m 740 1024 l 735 1022 q 744 967 747 996 q 728 914 742 938 q 692 875 714 890 q 646 860 669 860 q 547 888 594 860 q 447 948 499 915 q 338 1008 396 981 q 206 1035 279 1035 q 111 1013 147 1035 q 55 958 75 990 q 27 890 35 925 q 19 828 19 854 q 51 719 19 764 q 131 644 82 674 q 238 596 179 614 q 351 569 297 578 q 449 557 406 560 q 511 553 493 554 l 511 544 q 447 545 492 544 q 344 541 401 546 q 228 522 288 536 q 118 478 168 508 q 36 401 68 449 q 4 279 4 353 q 44 139 4 199 q 150 40 85 79 q 297 -18 215 1 q 458 -37 378 -37 q 569 -28 515 -37 q 667 1 624 -18 q 743 47 711 19 q 789 113 775 75 q 794 248 815 185 q 728 359 774 311 q 622 435 682 407 q 511 463 563 463 q 460 454 483 463 q 422 426 438 446 q 413 376 408 408 q 434 308 417 344 q 477 233 451 271 q 531 168 503 196 l 538 172 q 515 208 518 196 q 515 238 511 221 q 546 265 521 256 q 604 274 571 274 q 676 264 639 274 q 741 235 714 254 q 779 185 768 215 q 772 115 790 156 q 711 50 753 72 q 615 28 669 28 q 533 40 576 28 q 448 78 490 53 q 365 142 406 103 q 292 233 325 181 q 258 333 261 282 q 276 426 256 385 q 335 495 296 468 q 428 521 374 522 q 501 512 458 519 q 579 504 543 504 q 623 513 606 504 q 640 544 640 521 q 626 574 640 565 q 588 585 611 582 q 532 586 564 588 q 465 585 500 585 q 387 590 426 585 q 312 613 347 594 q 249 664 276 631 q 207 754 221 697 q 205 860 190 821 q 247 919 219 899 q 307 945 275 939 q 357 951 339 951 q 443 930 406 951 q 512 876 481 908 q 569 807 543 844 q 618 738 594 769 q 665 684 642 706 q 714 663 688 663 q 750 676 736 663 q 772 711 764 690 q 784 758 781 732 q 788 807 788 783 q 773 937 788 878 q 740 1024 758 996 "},"D":{"ha":871,"x_min":7,"x_max":832,"o":"m 108 1032 q 74 944 89 1004 q 60 814 60 885 q 63 766 60 792 q 75 719 67 740 q 98 685 83 699 q 135 671 113 671 q 185 693 161 671 q 233 748 208 715 q 284 819 257 781 q 343 890 311 857 q 414 944 375 922 q 501 967 453 967 q 544 958 524 967 q 582 933 565 950 q 608 889 599 915 q 618 826 618 863 l 621 201 q 618 108 621 144 q 607 51 615 72 q 583 22 599 31 q 539 14 567 14 q 513 32 526 14 q 485 77 500 50 q 456 136 471 104 q 428 196 442 168 q 400 242 414 224 q 372 263 386 261 l 339 263 l 339 0 l 538 0 q 649 5 596 -3 q 742 35 701 13 q 808 96 783 57 q 832 196 832 135 l 831 842 q 823 901 831 867 q 794 967 815 935 q 738 1021 774 999 q 643 1043 701 1043 q 512 1016 571 1043 q 401 956 453 989 q 302 896 350 924 q 203 868 254 868 q 159 883 178 868 q 128 923 140 899 q 113 976 117 947 q 117 1029 110 1004 l 108 1032 m 388 828 l 197 407 q 160 338 181 371 q 115 279 139 304 q 65 240 92 254 q 8 228 38 226 l 7 -1 q 119 29 69 -1 q 213 115 169 60 q 297 248 257 171 q 378 417 336 325 q 467 614 421 510 q 571 828 514 718 l 388 828 "},"F":{"ha":849,"x_min":10,"x_max":831,"o":"m 110 1025 q 77 937 92 996 q 63 807 63 878 q 66 758 63 783 q 78 713 69 733 q 100 678 86 692 q 136 664 114 664 q 187 684 163 664 q 236 735 211 704 q 288 801 261 765 q 348 868 315 838 q 420 919 381 899 q 508 939 460 939 q 550 934 531 939 q 585 916 569 929 q 609 879 600 903 q 618 819 618 856 l 619 735 l 831 735 l 831 833 q 823 892 831 858 q 794 958 815 926 q 738 1013 774 990 q 644 1035 701 1035 q 513 1008 572 1035 q 403 948 454 981 q 303 888 351 915 q 204 860 256 860 q 160 876 179 860 q 130 915 142 892 q 115 968 118 939 q 118 1022 111 997 l 110 1025 m 389 821 l 257 529 l 11 529 l 11 221 l 10 -7 q 134 32 79 -7 q 236 140 189 71 q 328 302 283 208 q 422 507 372 396 l 450 507 q 496 499 479 507 q 521 466 513 490 q 531 397 529 442 q 532 279 532 353 l 740 276 q 717 406 740 356 q 655 483 694 456 q 563 519 615 510 q 449 529 510 529 l 433 529 q 497 672 464 599 q 571 821 531 744 l 389 821 m 22 221 l 22 394 q 32 445 22 425 q 67 478 42 465 q 135 497 92 490 q 246 506 179 503 l 199 400 q 164 334 183 365 q 122 278 144 303 q 75 238 100 253 q 22 221 50 222 "},"G":{"ha":1039,"x_min":24,"x_max":1013,"o":"m 675 1001 l 667 999 q 685 944 686 972 q 668 893 683 917 q 629 854 653 869 q 582 839 606 839 q 521 853 549 839 q 467 889 493 868 q 416 935 442 910 q 360 981 390 960 q 294 1017 331 1003 q 208 1031 257 1031 q 115 1008 151 1031 q 59 953 79 986 q 31 881 39 919 q 24 813 24 843 l 24 415 q 58 246 24 322 q 152 115 92 169 q 294 30 213 60 q 472 0 376 0 l 910 0 l 910 397 l 1013 397 q 989 497 1013 458 q 925 557 965 535 q 832 588 885 579 q 722 596 779 596 l 290 596 l 290 338 l 301 338 l 301 467 q 306 514 303 494 q 323 546 310 533 q 363 565 336 558 q 435 576 389 572 q 552 580 482 579 q 724 581 622 581 q 766 573 750 581 q 790 545 782 565 q 801 490 799 525 q 804 397 804 454 l 894 397 q 849 201 883 275 q 762 86 815 126 q 635 32 708 46 q 471 18 561 18 q 369 47 415 18 q 289 124 322 76 q 237 235 256 172 q 218 364 218 297 l 218 797 q 238 872 221 843 q 277 916 256 900 q 320 938 299 932 q 354 943 342 943 q 413 921 389 943 q 456 865 438 899 q 490 794 474 832 q 528 722 507 756 q 577 667 549 689 q 649 644 606 644 q 685 658 671 644 q 708 693 700 672 q 719 739 717 714 q 722 786 722 764 q 708 915 722 857 q 675 1001 693 974 "},"H":{"ha":921,"x_min":33,"x_max":860,"o":"m 590 0 q 693 2 644 -3 q 779 29 742 7 q 838 97 817 51 q 860 219 860 142 q 846 328 860 282 q 808 406 832 374 q 752 458 785 438 q 683 489 719 479 l 858 489 l 858 972 l 657 972 l 657 494 q 586 501 618 501 l 376 501 l 376 972 l 175 972 l 175 501 l 35 501 l 35 236 l 33 -1 q 151 23 92 -1 q 261 97 211 47 q 343 220 311 146 q 376 394 375 294 l 376 479 q 476 481 424 481 q 588 481 529 481 q 626 470 611 481 q 649 434 640 460 q 660 365 657 408 q 664 256 664 321 q 661 142 664 189 q 651 67 658 96 q 628 25 643 38 q 588 13 613 13 q 563 29 576 13 q 537 72 550 46 q 510 127 524 97 q 483 183 496 157 q 456 227 469 210 q 431 246 443 244 l 400 246 l 404 0 l 590 0 m 175 404 q 169 340 175 369 q 148 287 163 310 q 109 250 133 264 q 49 236 85 236 l 49 375 q 81 431 49 410 q 175 463 113 451 l 175 404 "},"I":{"ha":554,"x_min":-7,"x_max":560,"o":"m 39 104 l 282 -46 l 560 240 l 546 251 q 520 219 535 236 q 489 189 506 203 q 453 166 472 175 q 413 157 433 157 l 242 260 l 413 450 l 413 768 l 514 893 l 271 1043 l -7 757 l 7 746 q 67 813 35 785 q 136 840 99 840 q 193 833 163 840 l 193 294 l 39 104 "},"J":{"ha":553,"x_min":-17,"x_max":519,"o":"m 6 -81 l 263 -235 q 353 -186 308 -217 q 432 -114 397 -156 q 488 -20 467 -72 q 511 94 510 32 l 511 836 q 517 933 519 893 q 501 997 514 972 q 468 1033 489 1022 q 421 1044 447 1044 q 364 1033 386 1044 q 325 1003 342 1021 q 293 966 308 986 q 256 928 278 946 q 203 899 235 911 q 122 888 172 888 q 80 900 99 888 q 49 933 61 913 q 35 978 38 953 q 39 1029 32 1004 l 31 1032 q -2 944 13 1003 q -17 815 -17 886 q -10 767 -17 793 q 8 721 -4 742 q 40 686 21 700 q 86 672 60 672 q 151 699 121 672 q 206 765 181 725 q 255 851 232 804 q 301 937 278 897 q 349 1003 325 976 q 400 1029 374 1029 q 467 999 447 1029 q 474 926 486 968 q 419 841 463 885 q 297 772 375 797 l 297 208 l 6 208 l 6 -81 m 297 192 l 297 106 q 269 37 297 69 q 200 -19 242 4 q 110 -58 158 -43 q 19 -74 61 -72 l 19 74 q 92 162 19 136 q 297 192 164 188 "},"K":{"ha":926,"x_min":-25,"x_max":1019,"o":"m 21 106 l 264 -44 l 399 144 l 222 260 l 393 450 l 393 501 l 472 501 q 599 456 550 492 q 674 372 647 421 q 712 265 701 322 q 722 154 722 208 q 718 63 722 99 q 704 7 714 28 q 677 -22 694 -14 q 633 -29 660 -29 q 592 -10 610 -29 q 560 36 574 8 q 533 97 546 64 q 506 158 519 131 q 475 205 492 186 q 435 224 458 224 l 429 224 l 429 -43 l 632 -43 q 744 -38 690 -46 q 840 -8 799 -31 q 906 55 882 15 q 931 157 931 94 q 894 276 931 219 q 799 377 857 332 q 669 454 740 422 q 532 501 599 486 l 574 501 l 840 629 q 840 757 843 690 q 847 878 836 824 q 896 969 858 933 q 1019 1004 933 1004 l 1019 1015 l 751 1014 q 669 982 696 1010 q 635 913 643 954 q 628 819 626 871 q 628 713 629 767 q 619 609 628 660 q 578 519 610 558 l 393 519 l 393 768 l 494 893 l 251 1042 l -25 757 l -11 744 q 48 812 17 783 q 117 840 79 840 q 146 838 132 840 q 175 832 160 835 l 175 294 l 21 106 "},"L":{"ha":850,"x_min":-17,"x_max":822,"o":"m 26 144 l 260 1 l 376 163 l 575 3 q 631 37 599 15 q 700 58 664 58 q 760 32 731 58 q 813 -68 789 6 l 822 -65 l 743 181 q 710 233 729 218 q 667 247 690 247 q 616 238 643 247 q 559 219 589 229 q 497 199 529 208 q 432 190 465 190 q 389 195 410 190 q 346 211 368 200 l 221 293 l 383 476 l 383 779 l 481 900 l 247 1043 l -17 769 l -4 758 q 53 822 24 794 q 119 849 83 849 q 174 842 146 849 l 174 326 l 26 144 "},"M":{"ha":1204,"x_min":36,"x_max":1156,"o":"m 343 972 l 215 457 q 188 394 207 422 q 144 347 168 365 q 92 319 119 328 q 36 311 64 310 l 36 0 l 824 0 q 936 7 878 0 q 1044 34 994 14 q 1124 90 1093 54 q 1156 183 1156 126 l 1153 972 l 343 972 m 865 958 l 956 958 l 958 189 q 947 101 958 135 q 917 47 936 67 q 874 21 899 28 q 825 14 850 14 q 660 14 726 14 q 551 16 594 14 q 486 24 508 18 q 453 42 464 31 q 441 72 443 53 q 438 118 439 90 q 544 133 494 119 q 633 175 593 146 q 699 252 672 204 q 739 368 726 300 l 865 958 m 424 311 l 424 14 q 242 15 311 14 q 134 26 174 17 q 79 58 94 36 q 58 118 64 79 q 156 135 107 121 q 247 183 204 150 q 324 267 290 215 q 378 393 358 318 l 524 958 l 685 958 l 585 478 q 562 412 578 443 q 524 358 546 381 q 477 322 503 335 q 424 311 451 310 "},"N":{"ha":1324,"x_min":3,"x_max":1626,"o":"m 165 1032 q 131 941 146 1003 q 115 806 115 879 q 119 756 115 782 q 131 708 122 729 q 154 672 139 686 q 193 657 169 657 q 244 679 219 657 q 293 734 268 701 q 346 806 318 767 q 408 877 374 844 q 483 932 442 910 q 578 954 525 954 q 593 953 583 954 q 617 951 603 953 q 550 819 588 892 q 467 672 513 746 q 372 529 422 599 q 269 407 322 460 q 163 323 217 354 q 56 294 108 292 l 3 -57 q 122 -14 65 -57 q 230 103 178 29 q 331 277 282 178 q 431 488 381 376 q 533 719 481 600 q 642 950 585 838 q 726 938 679 946 q 817 915 774 929 q 892 882 860 901 q 928 835 924 863 q 927 778 932 810 q 907 717 922 747 q 834 629 882 669 q 728 551 786 589 q 609 476 669 514 q 499 393 549 438 q 417 297 449 349 q 385 179 385 244 q 416 65 385 113 q 492 -12 447 18 q 584 -58 536 -43 q 667 -72 632 -72 q 771 -52 724 -72 q 856 -3 818 -32 q 922 57 894 25 q 968 114 950 89 q 1031 232 1000 158 q 1095 393 1063 306 q 1163 574 1128 481 q 1236 749 1197 667 q 1319 893 1275 831 q 1414 983 1363 956 q 1467 1006 1442 999 q 1517 1015 1492 1013 q 1568 1018 1542 1018 q 1624 1018 1594 1018 l 1626 1031 l 1422 1031 q 1320 1023 1378 1031 q 1208 995 1263 1015 q 1107 940 1153 975 q 1040 851 1061 906 q 983 663 1006 764 q 942 462 961 563 q 902 267 922 361 q 853 102 882 174 q 779 -12 824 31 q 668 -56 735 -56 q 624 -44 643 -56 q 593 -16 606 -33 q 575 23 581 1 q 569 65 569 44 q 590 157 569 106 q 641 264 610 208 q 711 377 672 319 q 788 490 750 435 q 860 596 826 546 q 914 685 894 646 q 953 832 956 767 q 919 944 950 897 q 834 1017 888 992 q 721 1043 781 1043 q 576 1015 638 1043 q 462 953 514 988 q 363 890 410 918 q 263 861 315 861 q 218 877 238 861 q 186 918 199 893 q 170 973 174 943 q 174 1029 167 1003 l 165 1032 "},"O":{"ha":1065,"x_min":-81,"x_max":1086,"o":"m 1004 558 q 958 513 979 533 q 915 476 936 493 q 872 444 894 460 q 822 411 850 428 q 803 319 814 369 q 776 217 793 268 q 737 117 760 165 q 683 31 714 68 q 610 -30 651 -7 q 515 -53 568 -53 q 444 -24 471 -53 q 402 52 417 6 q 383 156 388 99 q 381 272 379 214 q 542 297 460 276 q 703 353 625 318 q 851 435 782 388 q 973 542 921 483 q 1056 667 1025 600 q 1086 806 1086 733 q 1064 915 1086 869 q 1008 989 1042 960 q 934 1032 974 1018 q 858 1046 894 1046 q 703 1019 782 1046 q 552 945 625 993 q 415 831 479 897 q 302 685 350 765 q 226 515 254 606 q 199 328 199 424 q 220 307 199 317 q 271 290 242 297 q 110 346 176 303 q 12 447 44 389 q -17 570 -21 506 q 31 689 -14 635 q 92 742 58 725 q 158 758 126 758 q 216 743 190 758 q 257 696 242 728 l 261 696 q 226 756 247 725 q 178 813 204 788 q 122 856 151 839 q 61 872 92 872 q 15 861 38 872 q -28 822 -7 850 q -76 690 -71 768 q -51 533 -81 611 q 42 388 -21 454 q 201 292 106 322 q 232 148 210 214 q 292 34 254 82 q 385 -41 331 -14 q 515 -68 440 -68 q 673 -25 589 -68 q 829 93 757 18 q 951 267 901 168 q 1004 479 1000 367 q 1005 527 1006 506 q 1004 558 1004 549 m 456 444 l 465 442 q 469 522 464 476 q 488 616 474 568 q 524 708 501 664 q 578 786 546 753 q 652 838 610 819 q 749 849 694 856 q 831 814 803 843 q 865 733 858 785 q 862 607 872 682 q 828 433 851 532 q 614 329 731 368 q 381 286 497 290 q 382 384 381 318 q 411 557 383 450 q 481 743 439 657 q 579 893 524 829 q 701 993 635 957 q 839 1029 767 1029 q 924 1016 882 1029 q 1001 974 967 1003 q 1056 903 1035 946 q 1076 803 1076 861 q 1057 696 1076 747 q 1003 596 1038 644 q 988 694 1003 644 q 942 785 972 744 q 863 852 911 825 q 747 883 814 879 q 649 866 693 886 q 573 810 606 846 q 518 727 540 774 q 481 631 496 681 q 461 532 467 581 q 456 444 456 483 "},"P":{"ha":896,"x_min":36,"x_max":883,"o":"m 206 1147 l 201 1153 l 42 994 q 106 917 67 954 q 201 850 146 879 l 68 685 q 135 655 104 678 q 189 599 165 632 q 228 524 213 565 q 251 439 244 483 q 256 385 256 419 q 256 310 257 350 q 253 227 256 269 q 247 148 250 185 q 239 84 243 111 q 231 47 235 57 l 126 90 l 36 -47 l 369 -193 q 407 -143 386 -167 q 444 -102 428 -119 q 470 -73 461 -85 q 474 -58 479 -61 l 250 38 l 401 56 q 399 110 401 69 q 394 204 397 151 q 474 159 433 172 q 560 153 515 146 q 628 179 597 160 q 683 222 658 199 q 728 271 708 246 q 761 313 747 296 l 883 531 q 835 599 871 568 q 759 656 799 631 q 686 698 719 681 q 647 725 653 715 q 648 740 643 732 q 661 763 653 749 l 769 939 l 763 947 q 690 929 729 935 q 611 924 651 924 q 500 933 557 924 q 392 958 443 942 q 297 995 340 974 q 228 1041 254 1017 q 194 1093 201 1065 q 206 1147 186 1121 m 400 694 l 357 529 q 319 607 344 568 q 265 678 294 646 q 206 733 236 710 q 151 764 176 756 l 215 843 q 401 782 296 803 q 633 768 506 761 q 586 686 606 728 q 578 608 567 644 q 617 556 588 575 q 679 517 646 536 q 742 471 713 497 q 781 399 771 444 q 747 363 771 381 q 692 329 722 344 q 626 304 661 314 q 560 292 592 294 q 439 320 479 286 q 386 412 399 354 q 383 544 374 469 q 414 692 393 618 l 400 694 "},"Q":{"ha":958,"x_min":35,"x_max":951,"o":"m 81 199 l 239 318 q 249 498 236 401 q 293 694 261 594 q 343 817 317 767 q 457 706 400 764 q 572 582 514 649 q 581 547 589 563 q 551 518 574 531 q 476 472 525 503 q 370 402 428 442 q 253 316 313 363 q 146 221 194 269 q 66 124 97 172 q 35 35 35 76 q 42 6 35 28 q 63 -44 50 -15 q 90 -106 75 -74 q 117 -167 104 -139 q 141 -213 131 -194 q 156 -235 151 -232 l 722 -235 l 792 -78 l 835 7 l 825 7 q 756 -60 800 -42 q 654 -78 711 -78 l 114 -78 q 146 -10 114 -51 q 228 81 178 32 l 333 0 q 394 -7 364 -7 q 491 5 439 -7 q 597 39 543 17 q 701 94 650 61 q 792 171 751 128 q 867 294 833 215 q 921 467 900 374 q 947 659 942 561 q 938 838 951 757 l 706 1021 q 636 1038 683 1038 q 505 1015 581 1038 q 355 954 429 993 q 219 863 281 915 q 132 749 157 810 q 90 612 106 686 q 67 463 74 538 q 65 319 61 389 q 81 199 68 250 m 606 581 l 353 832 q 481 974 411 932 q 624 1015 551 1015 q 671 1011 649 1015 q 744 956 717 1003 q 781 838 771 910 q 787 676 792 765 q 763 496 782 588 q 710 317 743 404 q 631 161 676 229 q 529 52 586 93 q 406 11 472 11 q 319 38 346 11 q 271 121 292 65 q 354 193 311 157 q 440 261 397 229 q 523 321 483 293 q 593 368 563 349 q 606 389 600 372 q 614 428 611 406 q 617 475 617 450 q 617 522 618 500 q 613 560 615 544 q 606 581 610 576 "},"R":{"ha":1121,"x_min":-92,"x_max":1100,"o":"m -11 738 l 0 729 q 33 767 19 753 q 66 792 47 782 q 112 806 85 801 q 186 810 139 810 l 333 811 l 156 657 q 162 571 158 629 q 165 441 165 513 q 160 294 165 369 q 140 157 154 219 q 99 55 125 94 q 32 15 74 15 l -89 13 l -92 0 l 146 0 q 254 56 215 8 q 311 172 293 103 q 331 326 329 242 q 326 494 332 411 q 313 649 321 576 q 304 769 306 722 l 351 811 l 796 814 q 856 803 824 815 q 910 769 888 790 q 935 724 932 749 q 906 674 938 699 q 869 651 885 657 q 832 644 854 644 q 776 644 810 643 q 683 646 742 646 q 641 645 657 644 q 597 646 625 646 q 527 578 567 619 q 452 494 488 536 q 392 418 417 453 q 367 371 367 383 q 383 296 367 339 q 428 208 400 253 q 491 121 456 164 q 564 44 526 78 q 638 -11 601 10 q 706 -32 675 -32 q 752 -15 718 -32 q 827 25 786 1 q 909 76 868 49 q 975 125 950 103 q 1042 196 1011 156 q 1100 283 1072 236 l 1090 289 q 1053 231 1074 261 q 1006 175 1032 200 q 950 133 981 150 q 882 117 919 117 q 754 153 822 117 q 628 247 686 190 q 528 369 569 303 q 481 492 488 435 l 594 493 q 647 507 611 493 q 733 547 683 521 q 842 610 783 574 q 963 689 901 646 q 1008 729 986 710 q 1048 770 1031 749 q 1076 816 1065 792 q 1086 868 1086 840 q 1063 926 1086 896 q 1006 972 1040 957 l 210 971 l -11 738 "},"S":{"ha":885,"x_min":13,"x_max":889,"o":"m 394 765 q 455 706 419 729 q 531 671 490 683 q 616 654 572 658 q 703 650 660 650 l 757 1011 l 747 1011 q 696 878 733 922 q 610 835 658 835 q 491 892 553 835 q 376 1064 429 949 q 291 1010 343 1042 q 190 940 239 978 q 107 858 142 901 q 72 767 72 814 q 122 608 72 671 q 246 500 171 546 q 407 417 321 454 q 568 337 493 381 q 692 235 643 293 q 742 88 742 176 q 726 18 742 47 q 685 -30 711 -11 q 623 -58 658 -49 q 549 -67 588 -67 q 434 -49 493 -67 q 326 1 375 -32 q 247 81 278 35 q 217 186 217 128 q 255 312 217 258 q 376 406 293 365 l 367 417 l 72 261 q 17 117 13 189 q 65 -12 21 46 q 181 -105 108 -69 q 333 -140 254 -140 q 434 -130 376 -140 q 553 -100 492 -119 q 676 -51 615 -81 q 783 15 736 -22 q 860 99 831 53 q 889 197 889 144 q 860 297 889 251 q 783 382 831 342 q 674 458 735 422 q 549 530 613 494 q 424 601 485 565 q 315 676 363 636 q 238 762 267 717 q 208 860 208 807 q 215 915 208 883 q 257 975 222 946 l 371 1051 q 349 974 354 1014 q 349 896 344 933 q 365 824 353 858 q 394 765 378 790 "},"T":{"ha":867,"x_min":11,"x_max":907,"o":"m 556 1172 l 344 1050 q 354 947 354 1000 q 326 856 354 893 q 283 828 313 839 q 217 817 253 817 q 172 817 200 817 q 121 826 143 818 q 90 855 99 835 q 103 914 81 875 l 99 915 l 29 774 q 13 714 15 744 q 20 660 11 683 q 49 624 29 636 q 99 617 69 611 q 197 647 151 628 q 292 692 243 665 q 395 750 340 718 q 521 818 450 782 q 447 772 493 801 q 348 703 401 742 q 240 616 294 664 q 142 513 186 568 q 71 397 99 458 q 43 272 43 336 q 72 152 43 208 q 151 56 101 96 q 269 -8 201 15 q 413 -32 336 -32 q 544 -14 481 -32 q 646 38 608 4 l 754 418 l 749 421 q 666 269 722 344 q 545 135 610 194 q 419 40 481 76 q 317 4 357 4 q 261 33 281 4 q 233 97 242 61 q 224 169 225 133 q 222 219 222 206 q 266 476 222 361 q 376 673 310 592 q 518 798 442 754 q 660 842 594 842 q 703 814 696 842 q 703 751 710 786 q 681 682 696 715 q 660 639 667 649 l 665 636 l 907 947 q 783 924 854 938 q 625 891 711 911 q 440 842 539 871 q 233 775 342 814 q 386 874 325 824 q 485 974 447 924 q 538 1074 522 1024 q 556 1172 554 1125 "},"U":{"ha":967,"x_min":64,"x_max":967,"o":"m 532 1043 l 532 1051 q 471 1040 501 1051 q 402 1015 440 1029 q 315 990 364 1001 q 196 979 265 979 q 151 988 174 979 q 114 1014 128 996 q 97 1060 100 1032 q 111 1125 94 1088 l 108 1131 q 78 1039 92 1100 q 64 903 64 978 q 69 853 64 879 q 88 804 75 826 q 118 767 100 782 q 161 753 136 753 q 209 765 185 753 q 257 795 233 776 q 304 838 281 814 q 350 889 328 863 q 262 725 307 810 q 181 552 217 640 q 123 375 146 464 q 100 199 100 286 q 106 122 100 161 q 128 49 113 82 q 171 -6 143 15 q 240 -26 199 -26 q 345 6 296 -26 q 438 96 394 39 q 519 229 482 153 q 585 394 556 306 q 638 577 615 482 q 676 765 661 672 q 675 702 675 738 q 675 622 675 667 q 681 516 675 568 q 690 413 686 464 q 695 309 694 361 q 688 201 696 257 l 654 158 l 578 158 l 438 0 l 843 0 l 967 158 l 674 158 l 869 369 q 840 598 850 482 q 833 816 829 714 q 861 999 838 918 q 935 1121 885 1079 l 929 1129 l 679 938 q 653 733 669 833 q 613 542 636 632 q 562 375 590 451 q 499 244 533 299 q 426 161 465 190 q 342 136 386 132 q 267 159 296 140 q 220 208 238 178 q 197 276 203 238 q 190 360 190 315 q 203 458 190 394 q 240 598 217 522 q 297 753 264 674 q 367 897 329 832 q 447 1002 404 961 q 532 1043 489 1043 "},"V":{"ha":1207,"x_min":15,"x_max":1204,"o":"m 1046 1061 l 885 828 l 864 801 l 869 799 q 910 838 889 826 q 953 850 932 850 q 998 838 976 850 q 1035 806 1019 825 q 1061 764 1051 788 q 1071 717 1071 740 q 1041 591 1071 650 q 960 483 1011 532 q 845 393 910 433 q 710 323 781 353 q 572 274 640 293 q 444 244 503 254 q 557 379 499 311 q 663 518 615 447 q 742 665 711 589 q 774 825 774 742 q 757 915 774 878 q 713 974 740 951 q 647 1006 685 996 q 567 1015 608 1015 q 478 1007 524 1015 q 390 984 433 999 q 308 950 347 969 q 240 910 269 931 q 151 838 192 875 q 83 760 111 801 q 38 672 54 719 q 18 565 21 624 q 28 469 15 510 q 65 402 42 428 q 119 364 88 376 q 183 351 150 351 q 314 399 256 351 q 383 461 346 424 q 455 539 419 499 q 521 619 490 579 q 569 690 551 660 l 563 700 q 510 623 542 663 q 442 550 479 583 q 366 495 406 517 q 289 472 326 474 q 183 490 226 469 q 117 546 140 511 q 88 624 93 581 q 94 713 82 668 q 137 801 107 758 q 213 872 167 843 q 390 931 303 931 q 471 915 433 931 q 537 870 508 900 q 581 796 565 840 q 597 692 597 751 q 583 565 597 625 q 546 451 569 506 q 491 344 522 396 q 425 242 460 293 l 349 232 l 200 -26 q 197 -61 189 -46 q 221 -72 206 -76 q 230 -62 229 -69 q 228 -44 231 -54 q 224 -26 226 -35 q 226 -10 222 -17 l 376 28 q 600 118 496 57 q 792 258 704 179 q 951 426 881 336 q 1074 601 1022 515 q 1158 762 1126 686 q 1197 888 1189 838 q 1197 964 1204 932 q 1169 1017 1189 996 q 1117 1048 1149 1038 q 1046 1061 1086 1058 "},"W":{"ha":1568,"x_min":4,"x_max":1546,"o":"m 874 417 l 1165 800 l 939 794 l 939 796 l 921 794 q 836 548 883 647 q 731 387 789 449 q 601 294 672 325 q 443 250 529 263 q 558 387 499 318 q 666 528 617 456 q 747 679 715 601 q 778 842 778 757 q 761 933 778 896 q 715 994 744 971 q 647 1026 686 1017 q 565 1036 608 1036 q 476 1027 522 1036 q 385 1003 429 1018 q 302 969 342 989 q 233 929 263 950 q 142 857 183 894 q 72 777 101 819 q 26 685 43 735 q 7 578 10 636 q 18 478 4 519 q 56 411 32 438 q 111 372 79 385 q 176 360 143 360 q 308 407 250 360 q 378 471 340 433 q 451 550 415 508 q 519 633 488 592 q 569 706 550 674 l 561 714 q 508 636 540 676 q 439 562 476 596 q 361 506 401 528 q 283 482 321 483 q 176 501 219 479 q 109 558 133 522 q 79 638 85 593 q 85 729 74 683 q 128 817 97 775 q 204 890 158 860 q 296 935 250 921 q 386 950 342 950 q 469 935 431 950 q 535 889 507 919 q 581 813 564 858 q 597 707 597 768 q 583 578 597 639 q 545 461 569 517 q 490 353 521 406 q 422 247 458 300 l 344 238 l 193 -26 q 190 -61 182 -46 q 214 -72 199 -76 q 223 -61 222 -69 q 222 -44 224 -53 q 217 -25 219 -35 q 219 -8 215 -15 l 372 31 q 554 117 475 57 q 692 255 633 178 q 793 418 751 332 q 864 581 835 504 l 832 479 q 811 302 803 388 q 854 151 819 217 q 944 44 889 85 q 1064 4 999 4 q 1191 42 1128 4 q 1310 143 1254 79 q 1412 290 1365 207 q 1489 464 1458 374 q 1533 644 1519 554 q 1535 812 1546 735 q 1489 948 1525 889 q 1385 1033 1453 1007 l 1160 686 l 1167 683 q 1235 748 1196 725 q 1315 771 1275 771 q 1393 743 1361 771 q 1447 664 1424 717 q 1473 547 1469 611 q 1454 417 1476 483 q 1371 298 1432 350 q 1205 215 1310 246 q 938 193 1100 185 q 891 208 919 194 q 844 249 863 222 q 828 318 826 276 q 874 417 831 360 "},"X":{"ha":1046,"x_min":-75,"x_max":1079,"o":"m -15 972 l 419 475 l 81 243 q -35 136 -1 188 q -72 47 -69 85 q -55 -15 -75 8 q -8 -37 -35 -37 q 44 -19 17 -37 q 102 26 72 -1 q 163 85 132 54 q 224 144 194 117 q 283 190 254 172 q 336 208 311 208 q 373 194 356 208 q 404 149 390 181 q 428 63 418 117 q 442 -68 438 10 l 450 -68 l 581 247 q 511 251 546 251 q 390 240 447 251 q 284 213 332 228 q 199 187 236 199 q 140 175 163 175 q 113 192 118 175 q 119 231 107 210 q 169 274 132 251 l 438 456 l 835 0 l 1079 0 l 589 558 l 735 657 q 816 710 779 688 q 878 753 853 733 q 915 793 903 772 q 924 840 928 814 q 899 895 919 871 q 849 940 878 919 q 786 981 819 961 q 724 1021 753 1000 q 674 1065 694 1042 q 649 1117 653 1088 q 665 1174 643 1151 q 717 1226 686 1197 l 714 1233 l 560 1100 q 533 1075 547 1090 q 507 1044 518 1060 q 489 1011 496 1028 q 483 979 482 994 q 514 931 488 957 q 576 879 540 906 q 649 826 611 853 q 713 774 688 799 q 747 726 739 749 q 728 686 754 704 l 571 579 l 225 972 l -15 972 "},"Y":{"ha":872,"x_min":13,"x_max":853,"o":"m 853 1025 l 563 913 q 541 630 556 743 q 500 450 526 517 q 434 358 474 383 q 336 338 394 332 q 233 384 267 343 q 190 483 199 425 q 197 607 182 542 q 240 728 211 672 q 308 820 268 783 q 388 857 347 857 l 482 1033 q 421 1023 451 1033 q 352 999 390 1013 q 264 976 314 986 q 144 965 214 965 q 99 974 122 965 q 63 999 76 982 q 46 1041 49 1015 q 60 1103 43 1067 l 57 1107 q 26 1022 40 1079 q 13 894 13 964 q 18 847 13 872 q 36 801 24 822 q 67 767 49 781 q 110 754 85 754 q 162 769 133 754 q 219 806 190 783 q 275 856 247 829 q 325 908 303 883 q 290 849 314 890 q 238 754 267 808 q 181 637 210 700 q 130 510 151 574 q 98 389 108 447 q 97 285 88 331 q 138 213 106 240 q 233 186 169 186 q 361 228 306 186 q 463 347 417 271 q 550 531 510 424 q 632 768 590 638 q 604 572 618 664 q 591 393 590 481 q 613 219 592 306 q 690 38 635 132 q 735 -65 724 -19 q 715 -142 746 -111 q 604 -186 685 -172 q 374 -193 524 -200 q 312 -188 349 -192 q 245 -174 275 -185 q 202 -140 215 -162 q 210 -81 189 -118 q 266 1 240 -28 q 322 29 292 29 q 415 -16 361 29 q 556 -160 468 -61 l 611 156 q 555 160 581 158 q 503 163 529 161 q 447 167 476 165 q 379 168 417 168 q 344 140 369 168 q 288 70 319 113 q 225 -24 257 28 q 167 -123 193 -75 q 125 -208 140 -171 q 113 -261 110 -246 q 183 -321 115 -304 q 367 -337 251 -337 q 508 -324 444 -337 q 590 -290 571 -311 l 804 -76 q 835 5 824 -36 q 846 90 846 46 q 830 189 846 143 q 790 277 814 235 q 738 360 767 319 q 686 444 710 401 q 647 534 663 488 q 631 633 631 581 q 645 685 631 653 q 681 757 660 718 q 730 838 703 796 q 781 917 757 879 q 825 983 806 954 q 853 1025 844 1013 "},"Z":{"ha":1036,"x_min":44,"x_max":1074,"o":"m 253 1042 l 114 747 q 183 732 149 747 q 247 692 218 717 q 297 636 276 668 q 326 572 318 604 q 325 508 333 539 q 289 453 317 476 l 297 443 q 333 486 315 460 q 363 545 350 513 q 385 614 376 578 q 393 685 393 650 q 362 815 393 754 q 279 899 331 875 q 240 927 250 911 q 230 958 229 943 q 238 982 231 972 q 251 993 244 992 q 280 977 265 996 q 313 930 294 958 q 356 867 332 901 q 411 804 379 833 q 485 756 443 775 q 581 736 526 736 q 616 736 599 736 q 649 738 633 736 q 578 654 619 703 q 489 553 536 606 q 392 446 442 500 q 296 346 342 392 q 226 440 258 389 q 169 554 193 492 q 104 460 132 517 q 62 340 76 403 q 46 216 47 278 q 59 106 44 154 q 105 27 74 57 q 185 0 136 -3 l 300 132 q 520 12 406 53 q 744 -29 635 -29 q 875 -13 813 -29 q 992 35 938 3 q 1009 188 1003 115 q 1010 319 1015 260 q 985 426 1004 379 q 926 501 965 472 q 835 544 894 525 q 715 572 776 563 l 618 181 l 631 176 q 648 242 635 207 q 688 306 661 276 q 759 356 715 336 q 869 375 803 375 q 899 373 879 375 q 940 358 919 371 q 976 315 961 344 q 992 231 992 286 q 904 160 968 186 q 756 135 840 135 q 581 162 672 135 q 403 250 489 189 l 914 835 l 1074 1042 l 1047 1044 q 975 951 1004 986 q 910 899 946 917 q 823 877 875 882 q 683 872 771 872 q 565 883 629 872 q 441 917 501 894 q 331 970 381 939 q 253 1042 281 1001 m 124 214 q 83 226 97 214 q 65 258 69 238 q 65 308 61 279 q 81 368 69 336 q 181 240 128 297 q 124 214 142 213 "},"a":{"ha":671,"x_min":17,"x_max":649,"o":"m 443 201 l 475 0 l 649 0 l 497 972 l 168 972 l 17 0 l 185 0 l 217 201 l 443 201 m 424 333 l 236 333 l 331 932 l 424 333 "},"b":{"ha":708,"x_min":47,"x_max":681,"o":"m 404 521 l 404 524 q 491 533 446 524 q 573 567 536 543 q 634 633 610 592 q 658 739 658 675 q 631 851 658 806 q 559 926 604 897 q 454 965 514 954 q 328 972 394 976 l 47 972 l 47 0 l 353 0 q 478 15 419 0 q 583 64 538 31 q 654 149 628 97 q 681 272 681 201 q 653 395 681 347 q 584 472 625 443 q 494 510 543 500 q 404 521 446 521 m 328 583 l 218 583 l 218 847 l 328 847 q 442 821 397 849 q 488 724 488 793 q 442 617 488 650 q 328 583 397 583 m 354 125 l 218 125 l 218 458 l 328 458 q 395 448 363 458 q 453 416 428 438 q 494 364 479 394 q 510 293 510 333 q 469 168 510 213 q 354 125 428 124 "},"o":{"ha":985,"x_min":21,"x_max":963,"o":"m 21 481 q 55 280 21 371 q 151 124 89 189 q 299 24 213 60 q 493 -11 386 -11 q 685 24 599 -11 q 833 124 772 60 q 928 280 894 189 q 963 481 963 371 q 928 682 963 592 q 833 837 894 772 q 685 937 772 901 q 493 972 599 972 q 299 937 386 972 q 151 837 213 901 q 55 682 89 772 q 21 481 21 592 m 163 481 q 186 622 163 558 q 253 730 210 685 q 357 800 296 775 q 493 825 418 825 q 627 800 567 825 q 731 730 688 775 q 797 622 774 685 q 821 481 821 558 q 797 340 821 404 q 731 231 774 276 q 627 161 688 186 q 493 136 567 136 q 357 161 418 136 q 253 231 296 186 q 186 340 210 276 q 163 481 163 404 "},"c":{"ha":982,"x_min":35,"x_max":972,"o":"m 176 481 q 200 622 176 558 q 267 730 224 685 q 371 800 310 775 q 507 825 432 825 q 792 533 778 825 l 935 533 q 905 711 935 631 q 820 850 875 792 q 686 940 765 908 q 507 972 607 972 q 313 937 400 972 q 165 837 226 901 q 69 682 103 772 q 35 481 35 592 q 69 280 35 371 q 165 124 103 189 q 313 24 226 60 q 507 -11 400 -11 q 671 13 594 -11 q 808 83 747 38 q 910 192 868 128 q 972 338 953 257 l 810 338 q 701 188 783 239 q 507 136 618 136 q 371 161 432 136 q 267 231 310 186 q 200 340 224 276 q 176 481 176 404 "},"d":{"ha":693,"x_min":50,"x_max":661,"o":"m 50 972 l 50 0 l 250 0 q 397 23 333 -1 q 506 89 460 47 q 581 187 551 131 q 629 306 611 243 q 654 436 647 369 q 661 567 661 503 q 640 765 661 686 q 576 889 618 843 q 474 953 535 935 q 336 972 414 972 l 50 972 m 251 125 l 221 125 l 221 847 l 322 847 q 393 838 363 847 q 446 794 424 828 q 479 695 468 760 q 490 519 490 631 q 488 442 490 485 q 478 355 486 399 q 456 269 471 311 q 413 195 440 228 q 347 144 386 163 q 251 125 308 125 "},"e":{"ha":818,"x_min":35,"x_max":790,"o":"m 204 125 l 206 424 l 786 424 l 786 549 l 206 549 l 206 847 l 786 847 l 786 972 l 35 972 l 35 0 l 790 0 l 790 125 l 204 125 "},"f":{"ha":826,"x_min":35,"x_max":786,"o":"m 203 0 l 206 424 l 786 424 l 786 549 l 206 549 l 206 847 l 786 847 l 786 972 l 35 972 l 35 0 l 203 0 "},"g":{"ha":951,"x_min":26,"x_max":914,"o":"m 168 481 q 192 622 168 558 q 258 730 215 685 q 363 800 301 775 q 499 825 424 825 l 908 822 l 910 972 l 499 972 q 305 937 392 972 q 156 837 218 901 q 60 682 94 772 q 26 481 26 592 q 60 280 26 371 q 153 124 93 189 q 296 24 213 60 q 478 -11 379 -11 q 664 38 586 -11 q 765 201 742 88 l 765 0 l 914 0 l 914 549 l 307 549 l 307 424 l 765 424 l 765 407 q 735 260 760 314 q 674 179 710 207 q 599 144 639 151 q 525 136 560 136 q 374 161 440 136 q 261 231 307 186 q 192 340 215 276 q 168 481 168 404 "},"h":{"ha":689,"x_min":35,"x_max":653,"o":"m 206 549 l 206 972 l 35 972 l 35 0 l 207 0 l 207 424 l 481 424 l 481 0 l 653 0 l 651 972 l 481 972 l 481 549 l 206 549 "},"i":{"ha":303,"x_min":74,"x_max":246,"o":"m 246 0 l 244 972 l 74 972 l 74 0 l 246 0 "},"j":{"ha":415,"x_min":32,"x_max":378,"o":"m 206 242 q 191 181 204 203 q 155 147 178 158 q 101 134 132 136 q 32 132 69 132 l 32 0 l 171 0 q 324 56 269 0 q 378 238 378 113 l 378 415 l 376 794 l 376 972 l 206 972 l 206 242 "},"k":{"ha":674,"x_min":35,"x_max":658,"o":"m 206 490 l 206 972 l 35 972 l 35 0 l 207 0 l 207 394 l 447 394 l 249 0 l 419 0 l 658 503 l 383 503 l 644 972 l 474 972 l 206 490 "},"m":{"ha":993,"x_min":39,"x_max":968,"o":"m 968 972 l 646 972 l 501 40 l 356 972 l 39 972 l 39 0 l 203 0 l 213 814 l 339 0 l 668 0 l 792 794 l 792 0 l 957 0 l 968 972 "},"n":{"ha":940,"x_min":35,"x_max":911,"o":"m 732 42 l 356 972 l 35 972 l 35 0 l 203 0 l 213 908 l 581 0 l 900 0 l 911 972 l 732 972 l 732 42 "},"p":{"ha":663,"x_min":35,"x_max":646,"o":"m 204 0 l 206 457 l 315 457 q 451 474 390 457 q 555 524 511 490 q 622 607 599 557 q 646 724 646 657 q 619 845 646 797 q 546 922 592 893 q 440 961 500 950 q 315 972 381 972 l 35 972 l 35 0 l 204 0 m 315 589 l 206 589 l 206 840 l 315 840 q 379 835 350 840 q 430 817 408 831 q 463 779 451 804 q 475 715 475 754 q 463 651 475 676 q 430 613 451 626 q 379 594 408 599 q 315 589 350 589 "},"q":{"ha":1004,"x_min":35,"x_max":1049,"o":"m 35 481 q 69 278 35 371 q 165 121 103 186 q 313 19 226 56 q 507 -18 400 -18 q 699 19 613 -18 q 847 121 786 56 q 942 278 908 186 q 976 481 976 371 q 942 683 976 592 q 847 842 908 775 q 699 945 786 908 q 507 982 613 982 q 313 945 400 982 q 165 842 226 908 q 69 683 103 775 q 35 481 35 592 m 176 481 q 200 623 176 558 q 267 735 224 688 q 371 808 310 782 q 507 835 432 835 q 641 808 581 835 q 744 735 701 782 q 811 623 788 688 q 835 481 835 558 q 811 340 835 404 q 744 228 788 275 q 641 155 701 181 q 507 129 581 129 q 371 155 432 129 q 267 228 310 181 q 200 340 224 275 q 176 481 176 404 m 493 -74 l 493 -204 l 1049 -204 l 1049 -74 l 493 -74 "},"r":{"ha":726,"x_min":67,"x_max":678,"o":"m 236 0 l 238 457 l 279 457 l 503 0 l 676 0 l 449 465 q 616 549 554 485 q 678 724 678 614 q 651 845 678 797 q 578 922 624 893 q 472 961 532 950 q 347 972 413 972 l 67 972 l 67 0 l 236 0 m 347 589 l 238 589 l 238 840 l 347 840 q 411 835 382 840 q 462 817 440 831 q 495 779 483 804 q 507 715 507 754 q 495 651 507 676 q 462 613 483 626 q 411 594 440 599 q 347 589 382 589 "},"l":{"ha":526,"x_min":35,"x_max":497,"o":"m 496 0 l 497 132 l 206 132 l 214 972 l 35 972 l 35 0 l 496 0 "},"s":{"ha":756,"x_min":32,"x_max":718,"o":"m 551 239 q 540 189 551 208 q 507 158 528 169 q 458 143 486 147 q 399 139 431 139 q 322 152 357 139 q 260 188 286 165 q 218 239 233 210 q 203 301 203 268 l 32 301 q 53 183 32 239 q 118 83 74 126 q 231 15 163 40 q 394 -11 300 -11 q 635 55 551 -11 q 718 239 718 121 q 684 369 718 317 q 599 458 650 421 q 488 522 547 494 q 378 578 429 550 q 292 640 326 606 q 258 724 258 674 q 271 772 258 753 q 303 803 283 792 q 348 818 322 814 q 400 822 374 822 q 474 810 446 822 q 519 777 503 797 q 542 730 536 757 q 547 672 547 703 l 718 672 q 698 799 718 742 q 638 897 678 856 q 539 960 599 938 q 401 983 479 983 q 277 966 335 983 q 178 915 219 949 q 112 832 136 882 q 88 717 88 782 q 122 585 88 638 q 208 498 156 533 q 319 438 260 463 q 431 387 379 414 q 517 326 483 360 q 551 239 551 293 "},"t":{"ha":686,"x_min":21,"x_max":660,"o":"m 21 971 l 21 846 l 256 846 l 256 0 l 428 0 l 426 846 l 660 846 l 660 971 l 21 971 "},"u":{"ha":872,"x_min":61,"x_max":814,"o":"m 231 382 l 231 969 l 61 969 l 61 365 q 93 205 61 274 q 178 90 125 136 q 298 22 231 44 q 436 -1 365 -1 q 575 22 507 -1 q 696 90 643 44 q 781 205 749 136 q 814 365 814 274 l 814 969 l 644 969 l 644 382 q 627 277 644 322 q 581 202 610 232 q 516 158 553 172 q 440 143 479 143 q 364 158 401 143 q 297 203 326 174 q 249 278 267 233 q 231 382 231 322 "},"v":{"ha":707,"x_min":32,"x_max":658,"o":"m 658 972 l 490 972 l 346 40 l 200 972 l 32 972 l 183 0 l 507 0 l 658 972 "},"x":{"ha":826,"x_min":26,"x_max":808,"o":"m 296 486 l 26 0 l 206 0 l 413 372 l 422 372 l 629 0 l 808 0 l 539 486 l 808 972 l 629 972 l 422 600 l 413 600 l 206 972 l 26 972 l 296 486 "},"y":{"ha":689,"x_min":18,"x_max":667,"o":"m 506 331 l 667 972 l 492 972 l 342 367 l 193 972 l 18 972 l 176 331 l 256 331 l 256 0 l 426 0 l 426 331 l 506 331 "},"z":{"ha":858,"x_min":26,"x_max":824,"o":"m 771 792 l 26 328 l 28 10 l 824 10 l 824 189 l 79 189 l 79 190 l 824 642 l 822 972 l 26 972 l 26 793 l 771 793 l 771 792 "},"w":{"ha":1028,"x_min":33,"x_max":993,"o":"m 510 799 l 656 0 l 993 0 l 982 972 l 818 972 l 818 61 l 651 974 l 374 974 l 208 58 l 197 972 l 33 972 l 33 0 l 365 0 l 510 799 "},"!":{"ha":258,"x_min":42,"x_max":213,"o":"m 206 246 l 213 972 l 42 972 l 47 246 l 206 246 m 206 0 l 204 150 l 49 150 l 49 0 l 206 0 "},"?":{"ha":503,"x_min":31,"x_max":506,"o":"m 31 676 l 396 676 q 264 550 357 586 q 32 514 171 514 l 32 276 q 205 322 119 276 q 357 438 290 367 q 465 599 424 510 q 506 775 506 688 q 493 847 506 811 q 453 910 481 882 q 383 955 426 938 q 276 972 339 972 q 183 953 228 972 q 105 898 139 935 q 51 806 71 861 q 31 676 31 750 m 400 686 l 307 686 q 230 710 254 689 q 206 786 206 731 q 213 848 206 818 q 235 902 221 878 q 272 941 250 926 q 324 956 294 956 q 396 915 372 956 q 419 808 419 875 q 400 686 419 740 m 281 0 l 279 150 l 124 150 l 124 0 l 281 0 "},"@":{"ha":1256,"x_min":32,"x_max":1225,"o":"m 32 347 q 78 109 32 213 q 208 -64 124 6 q 411 -169 293 -133 q 674 -206 529 -206 l 888 -204 l 888 -115 l 674 -115 q 550 -107 614 -115 q 427 -78 486 -99 q 315 -22 368 -57 q 223 68 263 14 q 160 197 183 122 q 138 371 138 272 q 174 576 138 482 q 276 739 210 671 q 437 845 343 807 q 644 883 531 883 q 866 855 774 883 q 1017 767 958 826 q 1105 615 1076 707 q 1133 394 1133 522 q 1099 190 1133 251 q 999 128 1065 128 q 944 141 965 128 q 910 171 922 154 q 892 203 897 188 q 888 226 888 219 l 886 650 l 600 650 q 500 630 546 650 q 421 576 454 610 q 369 494 388 542 q 351 393 351 447 q 369 281 351 333 q 422 189 388 228 q 505 128 456 150 q 617 106 554 106 q 735 140 692 106 q 789 240 778 175 l 806 240 l 806 221 q 817 162 806 192 q 851 108 828 132 q 910 69 874 85 q 996 54 946 54 q 1169 144 1114 54 q 1225 403 1225 235 q 1078 828 1225 685 q 643 972 932 972 q 396 926 508 972 q 203 798 283 881 q 77 601 122 715 q 32 347 32 486 m 435 393 q 478 517 435 469 q 600 564 522 565 l 790 563 l 790 372 q 784 301 790 335 q 761 244 778 268 q 717 206 744 219 q 647 192 689 192 q 493 244 551 192 q 435 393 435 296 "},"#":{"ha":940,"x_min":10,"x_max":921,"o":"m 535 972 l 393 972 l 319 735 l 110 735 l 110 610 l 282 610 l 213 385 l 10 385 l 10 260 l 174 260 l 94 0 l 236 0 l 315 260 l 492 260 l 413 0 l 554 0 l 633 260 l 821 260 l 821 385 l 672 385 l 742 610 l 921 610 l 921 735 l 779 735 l 853 972 l 711 972 l 638 735 l 461 735 l 535 972 m 531 385 l 354 385 l 424 610 l 600 610 l 531 385 "},"%":{"ha":838,"x_min":21,"x_max":813,"o":"m 21 775 q 75 631 21 685 q 219 576 129 576 q 363 631 308 576 q 417 775 417 685 q 363 918 417 864 q 219 972 308 972 q 75 918 129 972 q 21 775 21 864 m 732 971 l 624 971 l 76 0 l 185 0 l 732 971 m 90 775 q 126 868 90 833 q 219 903 161 903 q 313 868 278 903 q 347 775 347 833 q 313 681 347 717 q 219 646 278 646 q 126 681 161 646 q 90 775 90 717 m 417 199 q 471 54 417 108 q 615 0 525 0 q 758 54 704 0 q 813 199 813 108 q 758 342 813 288 q 615 396 704 396 q 471 342 525 396 q 417 199 417 288 m 486 199 q 522 292 486 257 q 615 326 557 326 q 708 292 674 326 q 743 199 743 257 q 708 105 743 140 q 615 69 674 69 q 522 105 557 69 q 486 199 486 140 "},"&":{"ha":885,"x_min":32,"x_max":983,"o":"m 76 707 q 94 619 76 664 q 140 531 111 575 q 64 442 96 494 q 32 332 32 390 q 60 201 32 264 q 135 92 88 139 q 243 17 182 44 q 371 -11 304 -11 q 523 6 453 -11 q 651 56 593 22 l 721 0 l 983 0 l 767 161 q 816 267 799 208 q 833 396 833 325 l 833 524 l 832 635 l 439 632 l 439 507 l 810 510 l 810 397 q 800 338 810 365 q 775 288 790 311 q 740 247 760 265 q 700 214 721 229 q 526 362 610 288 q 380 504 443 436 q 279 629 317 572 q 242 725 242 686 q 247 754 242 738 q 263 785 251 771 q 294 810 275 800 q 344 821 314 821 l 686 819 l 690 972 l 343 968 q 238 951 286 968 q 153 900 189 933 q 97 818 117 867 q 76 707 76 769 m 239 408 q 380 274 303 340 q 532 149 457 208 q 451 139 492 142 q 371 136 410 136 q 325 137 354 136 q 262 141 296 138 q 194 151 228 144 q 131 171 160 158 q 85 201 103 183 q 68 246 68 219 q 87 294 68 268 q 133 342 106 319 q 189 383 160 365 q 239 408 218 400 "},"\"":{"ha":381,"x_min":53,"x_max":332,"o":"m 53 1042 l 53 694 l 161 694 l 161 1042 l 53 1042 m 224 1042 l 224 694 l 332 694 l 332 1042 l 224 1042 "},"$":{"ha":665,"x_min":22,"x_max":632,"o":"m 296 1042 l 296 960 q 206 935 247 954 q 134 888 164 917 q 88 818 104 858 q 71 726 71 778 q 91 629 71 669 q 143 560 111 589 q 215 510 175 531 q 296 471 256 489 l 296 219 q 209 271 243 233 q 174 357 175 308 l 22 357 q 38 259 22 306 q 88 175 54 213 q 173 113 121 138 q 296 81 225 88 l 296 0 l 406 0 l 406 82 q 574 153 515 96 q 632 301 632 210 q 612 397 632 357 q 560 468 592 438 q 487 522 528 499 q 406 564 446 544 l 406 813 q 465 763 450 797 q 481 688 481 729 l 632 688 q 575 871 632 797 q 406 960 518 944 l 406 1042 l 296 1042 m 296 815 l 296 622 q 243 670 264 644 q 222 732 222 696 q 243 789 222 769 q 296 815 264 808 m 483 301 q 462 242 483 261 q 406 217 440 224 l 406 417 q 462 369 440 396 q 483 301 483 342 "},"'":{"ha":214,"x_min":53,"x_max":161,"o":"m 53 1042 l 53 694 l 161 694 l 161 1042 l 53 1042 "},"(":{"ha":410,"x_min":81,"x_max":332,"o":"m 81 742 l 81 85 q 101 -42 81 14 q 156 -135 122 -97 q 236 -194 190 -174 q 332 -215 282 -215 l 332 -106 q 278 -94 304 -106 q 233 -60 253 -83 q 202 -1 214 -37 q 190 85 190 35 l 190 742 q 202 828 190 792 q 233 887 214 864 q 278 921 253 910 q 332 932 304 932 l 332 1042 q 236 1021 282 1042 q 156 962 190 1000 q 101 868 122 924 q 81 742 81 813 "},")":{"ha":463,"x_min":81,"x_max":332,"o":"m 332 85 l 332 742 q 311 868 332 813 q 256 962 290 924 q 176 1021 222 1000 q 81 1042 131 1042 l 81 932 q 134 921 108 932 q 179 887 160 910 q 210 828 199 864 q 222 742 222 792 l 222 85 q 210 -1 222 35 q 179 -60 199 -37 q 134 -94 160 -83 q 81 -106 108 -106 l 81 -215 q 176 -194 131 -215 q 256 -135 222 -174 q 311 -42 290 -97 q 332 85 332 14 "},"*":{"ha":393,"x_min":15,"x_max":376,"o":"m 15 689 l 71 635 l 157 721 l 157 585 l 235 585 l 235 721 l 321 635 l 376 689 l 275 790 l 376 892 l 321 946 l 235 860 l 235 1000 l 157 1000 l 157 860 l 71 946 l 15 892 l 117 790 l 15 689 "},"+":{"ha":771,"x_min":36,"x_max":732,"o":"m 329 293 l 329 0 l 439 0 l 439 293 l 732 293 l 732 403 l 439 403 l 439 694 l 329 694 l 329 403 l 36 403 l 36 293 l 329 293 "},",":{"ha":240,"x_min":32,"x_max":203,"o":"m 32 169 l 32 0 l 133 0 l 53 -140 l 125 -140 l 203 0 l 203 169 l 32 169 "},".":{"ha":235,"x_min":32,"x_max":203,"o":"m 32 169 l 32 0 l 203 0 l 203 169 l 32 169 "},"-":{"ha":683,"x_min":26,"x_max":639,"o":"m 26 293 l 639 293 l 639 403 l 26 403 l 26 293 "},"/":{"ha":692,"x_min":21,"x_max":676,"o":"m 676 971 l 568 971 l 21 0 l 129 0 l 676 971 "},"[":{"ha":321,"x_min":42,"x_max":293,"o":"m 42 836 l 42 64 q 65 -51 42 -10 q 124 -112 88 -92 q 205 -137 160 -132 q 293 -142 250 -142 l 293 -32 q 240 -32 265 -32 q 194 -24 214 -32 q 163 3 175 -17 q 151 64 151 24 l 151 836 q 163 897 151 876 q 194 924 175 917 q 240 932 214 932 q 293 932 265 932 l 293 1042 q 205 1037 250 1042 q 124 1012 160 1032 q 65 951 88 992 q 42 836 42 910 "},"]":{"ha":386,"x_min":81,"x_max":332,"o":"m 332 64 l 332 836 q 309 951 332 910 q 250 1012 286 992 q 169 1037 214 1032 q 81 1042 125 1042 l 81 932 q 134 932 108 932 q 179 924 160 932 q 210 897 199 917 q 222 836 222 876 l 222 64 q 210 3 222 24 q 179 -24 199 -17 q 134 -32 160 -32 q 81 -32 108 -32 l 81 -142 q 169 -137 125 -142 q 250 -112 214 -132 q 309 -51 286 -92 q 332 64 332 -10 "},"\\":{"ha":692,"x_min":33,"x_max":689,"o":"m 689 0 l 142 971 l 33 971 l 581 0 l 689 0 "},"^":{"ha":651,"x_min":32,"x_max":621,"o":"m 221 989 l 32 603 l 150 603 l 326 964 l 503 603 l 621 603 l 432 989 l 221 989 "},"_":{"ha":669,"x_min":26,"x_max":639,"o":"m 26 -110 l 639 -110 l 639 0 l 26 0 l 26 -110 "},"`":{"ha":274,"x_min":35,"x_max":244,"o":"m 35 1042 l 179 838 l 244 838 l 100 1042 l 35 1042 "},":":{"ha":267,"x_min":46,"x_max":217,"o":"m 46 583 l 46 414 l 217 414 l 217 583 l 46 583 m 46 169 l 46 0 l 217 0 l 217 169 l 46 169 "},";":{"ha":267,"x_min":46,"x_max":218,"o":"m 46 583 l 46 414 l 217 414 l 217 583 l 46 583 m 47 169 l 47 0 l 149 0 l 68 -140 l 140 -140 l 218 0 l 218 169 l 47 169 "},"<":{"ha":667,"x_min":26,"x_max":639,"o":"m 26 293 l 639 0 l 639 110 l 142 347 l 639 586 l 639 696 l 26 403 l 26 293 "},">":{"ha":663,"x_min":26,"x_max":639,"o":"m 26 110 l 26 0 l 639 293 l 639 403 l 26 696 l 26 586 l 524 347 l 26 110 "},"=":{"ha":665,"x_min":26,"x_max":639,"o":"m 26 392 l 639 392 l 639 501 l 26 501 l 26 392 m 26 203 l 639 203 l 639 313 l 26 313 l 26 203 "},"{":{"ha":464,"x_min":0,"x_max":332,"o":"m 0 485 l 0 363 l 81 363 l 81 85 q 101 -42 81 14 q 156 -135 122 -97 q 236 -194 190 -174 q 332 -215 282 -215 l 332 -106 q 278 -94 304 -106 q 233 -60 253 -83 q 202 -1 214 -37 q 190 85 190 35 l 190 322 q 181 362 190 344 q 159 391 172 379 q 130 409 146 403 q 99 415 114 415 l 99 436 q 130 440 114 436 q 159 455 146 444 q 181 482 172 465 q 190 522 190 499 l 190 742 q 202 828 190 792 q 233 887 214 864 q 278 921 253 910 q 332 932 304 932 l 332 1042 q 236 1021 282 1042 q 156 962 190 1000 q 101 868 122 924 q 81 742 81 813 l 81 485 l 0 485 "},"}":{"ha":464,"x_min":96,"x_max":428,"o":"m 347 363 l 428 363 l 428 485 l 347 485 l 347 742 q 326 868 347 813 q 272 962 306 924 q 192 1021 238 1000 q 96 1042 146 1042 l 96 932 q 149 921 124 932 q 194 887 175 910 q 226 828 214 864 q 238 742 238 792 l 238 522 q 247 482 238 499 q 269 455 256 465 q 299 440 282 444 q 329 436 315 436 l 329 415 q 299 409 315 415 q 269 391 282 403 q 247 362 256 379 q 238 322 238 344 l 238 85 q 226 -1 238 35 q 194 -60 214 -37 q 149 -94 175 -83 q 96 -106 124 -106 l 96 -215 q 192 -194 146 -215 q 272 -135 238 -174 q 326 -42 306 -97 q 347 85 347 14 l 347 363 "},"|":{"ha":233,"x_min":68,"x_max":167,"o":"m 68 1011 l 68 0 l 167 0 l 167 1011 l 68 1011 "},"~":{"ha":811,"x_min":56,"x_max":768,"o":"m 56 419 l 56 297 q 115 352 76 338 q 204 367 154 367 q 303 358 250 367 q 412 338 357 349 q 520 317 467 326 q 621 308 574 308 q 708 323 669 308 q 768 376 747 338 l 768 499 q 708 445 747 460 q 621 431 669 431 q 520 440 574 431 q 412 460 467 449 q 303 480 357 471 q 204 489 250 489 q 115 474 154 489 q 56 419 76 460 "},"":{"ha":257,"x_min":35,"x_max":244,"o":"m 35 838 l 100 838 l 244 1042 l 179 1042 l 35 838 "},"":{"ha":388,"x_min":18,"x_max":372,"o":"m 18 838 l 83 838 l 196 996 l 307 838 l 372 838 l 228 1042 l 163 1042 l 18 838 "},"":{"ha":392,"x_min":18,"x_max":372,"o":"m 196 883 l 83 1042 l 18 1042 l 163 838 l 228 838 l 372 1042 l 307 1042 l 196 883 "},"":{"ha":317,"x_min":36,"x_max":276,"o":"m 36 892 l 36 851 q 56 870 43 865 q 86 875 69 875 q 156 865 118 875 q 226 854 194 854 q 276 879 263 854 l 276 919 q 257 901 269 906 q 228 896 244 896 q 158 906 196 896 q 88 915 119 915 q 56 910 69 915 q 36 892 43 906 "},"":{"ha":292,"x_min":26,"x_max":265,"o":"m 26 919 q 41 881 26 896 q 79 867 56 867 q 117 881 103 867 q 132 919 132 896 q 117 958 132 943 q 79 972 103 972 q 41 958 56 972 q 26 919 26 943 m 160 919 q 174 881 160 896 q 213 867 189 867 q 251 881 236 867 q 265 919 265 896 q 251 958 265 943 q 213 972 236 972 q 174 958 189 972 q 160 919 160 943 "},"":{"ha":293,"x_min":35,"x_max":263,"o":"m 35 851 q 66 767 35 799 q 149 736 97 736 q 231 767 200 736 q 263 851 263 799 q 231 934 263 903 q 149 965 200 965 q 66 934 97 965 q 35 851 35 903 m 71 851 q 92 908 71 888 q 149 929 113 929 q 206 908 185 929 q 226 851 226 888 q 206 794 226 815 q 149 772 185 772 q 92 794 113 772 q 71 851 71 815 "},"":{"ha":386,"x_min":25,"x_max":372,"o":"m 90 1042 l 25 1042 q 33 974 25 1010 q 60 908 40 938 q 111 858 79 878 q 190 838 143 838 l 215 838 q 293 858 263 838 q 342 908 324 878 q 366 974 360 938 q 372 1042 372 1010 l 307 1042 q 303 984 307 1013 q 287 933 299 956 q 254 897 275 911 q 199 883 233 883 q 144 897 165 883 q 111 933 124 911 q 94 984 99 956 q 90 1042 90 1013 "},"":{"ha":276,"x_min":29,"x_max":243,"o":"m 192 -101 q 178 -119 192 -114 q 144 -124 164 -124 q 101 -108 118 -124 q 83 -72 83 -93 l 29 -72 q 56 -140 29 -111 q 143 -169 83 -169 q 217 -151 192 -169 q 243 -104 243 -132 q 222 -64 243 -78 q 178 -40 201 -50 q 140 -19 156 -29 q 138 11 125 -8 l 92 13 q 103 -26 88 -11 q 138 -53 118 -40 q 174 -76 157 -65 q 192 -101 192 -87 "},"":{"ha":942,"x_min":-17,"x_max":950,"o":"m 818 825 q 818 925 826 883 q 791 992 810 967 q 747 1030 772 1018 q 694 1042 721 1042 q 584 1015 639 1042 q 472 954 529 988 q 351 894 414 921 q 214 867 288 867 q 165 875 189 867 q 127 901 142 883 q 110 947 113 919 q 124 1013 107 975 l 121 1017 q 88 926 103 988 q 74 792 74 865 q 80 742 74 768 q 99 694 86 717 q 131 658 111 672 q 176 644 150 644 q 254 673 211 644 q 344 743 297 701 q 437 834 390 785 q 527 926 483 883 q 608 996 571 968 q 672 1024 646 1024 q 692 1017 685 1024 q 699 992 699 1011 q 644 883 697 940 q 510 764 590 826 q 339 633 431 701 q 168 491 247 564 q 36 341 89 418 q -17 182 -17 264 q -3 102 -17 143 q 40 29 11 61 q 112 -24 68 -3 q 217 -44 156 -44 q 306 7 257 -44 q 407 153 354 58 q 515 381 460 247 q 625 678 571 514 l 640 678 l 438 104 q 475 53 451 78 q 527 11 499 29 q 587 -17 556 -7 q 647 -28 618 -28 q 742 -2 696 -28 q 828 64 789 24 q 897 153 868 104 q 938 249 925 203 q 943 335 950 296 q 903 393 936 374 q 876 400 892 400 q 826 386 854 400 q 768 350 797 372 q 712 300 739 328 q 664 243 685 272 l 669 238 q 701 267 689 261 q 731 269 714 272 q 758 245 749 268 q 767 189 767 222 q 760 119 767 156 q 740 51 753 82 q 707 3 726 21 q 663 -7 688 -14 q 626 58 631 1 q 650 228 622 115 q 673 310 658 261 q 705 417 688 360 q 740 533 722 474 q 774 649 758 593 q 802 750 790 704 q 818 825 814 796 m 665 869 q 619 715 643 794 q 567 558 594 635 q 508 412 539 481 q 442 291 478 343 q 365 208 406 239 q 278 178 325 178 q 212 206 233 178 q 193 282 190 235 q 238 447 197 376 q 344 583 279 518 q 490 717 408 649 q 658 876 572 786 l 665 869 m 389 1246 l 533 1042 l 599 1042 l 454 1246 l 389 1246 "},"":{"ha":942,"x_min":-17,"x_max":950,"o":"m 818 825 q 818 925 826 883 q 791 992 810 967 q 747 1030 772 1018 q 694 1042 721 1042 q 584 1015 639 1042 q 472 954 529 988 q 351 894 414 921 q 214 867 288 867 q 165 875 189 867 q 127 901 142 883 q 110 947 113 919 q 124 1013 107 975 l 121 1017 q 88 926 103 988 q 74 792 74 865 q 80 742 74 768 q 99 694 86 717 q 131 658 111 672 q 176 644 150 644 q 254 673 211 644 q 344 743 297 701 q 437 834 390 785 q 527 926 483 883 q 608 996 571 968 q 672 1024 646 1024 q 692 1017 685 1024 q 699 992 699 1011 q 644 883 697 940 q 510 764 590 826 q 339 633 431 701 q 168 491 247 564 q 36 341 89 418 q -17 182 -17 264 q -3 102 -17 143 q 40 29 11 61 q 112 -24 68 -3 q 217 -44 156 -44 q 306 7 257 -44 q 407 153 354 58 q 515 381 460 247 q 625 678 571 514 l 640 678 l 438 104 q 475 53 451 78 q 527 11 499 29 q 587 -17 556 -7 q 647 -28 618 -28 q 742 -2 696 -28 q 828 64 789 24 q 897 153 868 104 q 938 249 925 203 q 943 335 950 296 q 903 393 936 374 q 876 400 892 400 q 826 386 854 400 q 768 350 797 372 q 712 300 739 328 q 664 243 685 272 l 669 238 q 701 267 689 261 q 731 269 714 272 q 758 245 749 268 q 767 189 767 222 q 760 119 767 156 q 740 51 753 82 q 707 3 726 21 q 663 -7 688 -14 q 626 58 631 1 q 650 228 622 115 q 673 310 658 261 q 705 417 688 360 q 740 533 722 474 q 774 649 758 593 q 802 750 790 704 q 818 825 814 796 m 665 869 q 619 715 643 794 q 567 558 594 635 q 508 412 539 481 q 442 291 478 343 q 365 208 406 239 q 278 178 325 178 q 212 206 233 178 q 193 282 190 235 q 238 447 197 376 q 344 583 279 518 q 490 717 408 649 q 658 876 572 786 l 665 869 m 389 1042 l 454 1042 l 599 1246 l 533 1246 l 389 1042 "},"":{"ha":942,"x_min":-17,"x_max":950,"o":"m 818 825 q 818 925 826 883 q 791 992 810 967 q 747 1030 772 1018 q 694 1042 721 1042 q 584 1015 639 1042 q 472 954 529 988 q 351 894 414 921 q 214 867 288 867 q 165 875 189 867 q 127 901 142 883 q 110 947 113 919 q 124 1013 107 975 l 121 1017 q 88 926 103 988 q 74 792 74 865 q 80 742 74 768 q 99 694 86 717 q 131 658 111 672 q 176 644 150 644 q 254 673 211 644 q 344 743 297 701 q 437 834 390 785 q 527 926 483 883 q 608 996 571 968 q 672 1024 646 1024 q 692 1017 685 1024 q 699 992 699 1011 q 644 883 697 940 q 510 764 590 826 q 339 633 431 701 q 168 491 247 564 q 36 341 89 418 q -17 182 -17 264 q -3 102 -17 143 q 40 29 11 61 q 112 -24 68 -3 q 217 -44 156 -44 q 306 7 257 -44 q 407 153 354 58 q 515 381 460 247 q 625 678 571 514 l 640 678 l 438 104 q 475 53 451 78 q 527 11 499 29 q 587 -17 556 -7 q 647 -28 618 -28 q 742 -2 696 -28 q 828 64 789 24 q 897 153 868 104 q 938 249 925 203 q 943 335 950 296 q 903 393 936 374 q 876 400 892 400 q 826 386 854 400 q 768 350 797 372 q 712 300 739 328 q 664 243 685 272 l 669 238 q 701 267 689 261 q 731 269 714 272 q 758 245 749 268 q 767 189 767 222 q 760 119 767 156 q 740 51 753 82 q 707 3 726 21 q 663 -7 688 -14 q 626 58 631 1 q 650 228 622 115 q 673 310 658 261 q 705 417 688 360 q 740 533 722 474 q 774 649 758 593 q 802 750 790 704 q 818 825 814 796 m 665 869 q 619 715 643 794 q 567 558 594 635 q 508 412 539 481 q 442 291 478 343 q 365 208 406 239 q 278 178 325 178 q 212 206 233 178 q 193 282 190 235 q 238 447 197 376 q 344 583 279 518 q 490 717 408 649 q 658 876 572 786 l 665 869 m 294 1042 l 360 1042 l 472 1200 l 583 1042 l 649 1042 l 504 1246 l 439 1246 l 294 1042 "},"":{"ha":942,"x_min":-17,"x_max":950,"o":"m 818 825 q 818 925 826 883 q 791 992 810 967 q 747 1030 772 1018 q 694 1042 721 1042 q 584 1015 639 1042 q 472 954 529 988 q 351 894 414 921 q 214 867 288 867 q 165 875 189 867 q 127 901 142 883 q 110 947 113 919 q 124 1013 107 975 l 121 1017 q 88 926 103 988 q 74 792 74 865 q 80 742 74 768 q 99 694 86 717 q 131 658 111 672 q 176 644 150 644 q 254 673 211 644 q 344 743 297 701 q 437 834 390 785 q 527 926 483 883 q 608 996 571 968 q 672 1024 646 1024 q 692 1017 685 1024 q 699 992 699 1011 q 644 883 697 940 q 510 764 590 826 q 339 633 431 701 q 168 491 247 564 q 36 341 89 418 q -17 182 -17 264 q -3 102 -17 143 q 40 29 11 61 q 112 -24 68 -3 q 217 -44 156 -44 q 306 7 257 -44 q 407 153 354 58 q 515 381 460 247 q 625 678 571 514 l 640 678 l 438 104 q 475 53 451 78 q 527 11 499 29 q 587 -17 556 -7 q 647 -28 618 -28 q 742 -2 696 -28 q 828 64 789 24 q 897 153 868 104 q 938 249 925 203 q 943 335 950 296 q 903 393 936 374 q 876 400 892 400 q 826 386 854 400 q 768 350 797 372 q 712 300 739 328 q 664 243 685 272 l 669 238 q 701 267 689 261 q 731 269 714 272 q 758 245 749 268 q 767 189 767 222 q 760 119 767 156 q 740 51 753 82 q 707 3 726 21 q 663 -7 688 -14 q 626 58 631 1 q 650 228 622 115 q 673 310 658 261 q 705 417 688 360 q 740 533 722 474 q 774 649 758 593 q 802 750 790 704 q 818 825 814 796 m 665 869 q 619 715 643 794 q 567 558 594 635 q 508 412 539 481 q 442 291 478 343 q 365 208 406 239 q 278 178 325 178 q 212 206 233 178 q 193 282 190 235 q 238 447 197 376 q 344 583 279 518 q 490 717 408 649 q 658 876 572 786 l 665 869 m 349 1097 l 349 1057 q 369 1076 356 1071 q 399 1081 382 1081 q 469 1070 431 1081 q 539 1060 507 1060 q 589 1085 575 1060 l 589 1125 q 569 1106 582 1111 q 540 1101 557 1101 q 470 1111 508 1101 q 400 1121 432 1121 q 369 1116 382 1121 q 349 1097 356 1111 "},"":{"ha":942,"x_min":-17,"x_max":950,"o":"m 818 825 q 818 925 826 883 q 791 992 810 967 q 747 1030 772 1018 q 694 1042 721 1042 q 584 1015 639 1042 q 472 954 529 988 q 351 894 414 921 q 214 867 288 867 q 165 875 189 867 q 127 901 142 883 q 110 947 113 919 q 124 1013 107 975 l 121 1017 q 88 926 103 988 q 74 792 74 865 q 80 742 74 768 q 99 694 86 717 q 131 658 111 672 q 176 644 150 644 q 254 673 211 644 q 344 743 297 701 q 437 834 390 785 q 527 926 483 883 q 608 996 571 968 q 672 1024 646 1024 q 692 1017 685 1024 q 699 992 699 1011 q 644 883 697 940 q 510 764 590 826 q 339 633 431 701 q 168 491 247 564 q 36 341 89 418 q -17 182 -17 264 q -3 102 -17 143 q 40 29 11 61 q 112 -24 68 -3 q 217 -44 156 -44 q 306 7 257 -44 q 407 153 354 58 q 515 381 460 247 q 625 678 571 514 l 640 678 l 438 104 q 475 53 451 78 q 527 11 499 29 q 587 -17 556 -7 q 647 -28 618 -28 q 742 -2 696 -28 q 828 64 789 24 q 897 153 868 104 q 938 249 925 203 q 943 335 950 296 q 903 393 936 374 q 876 400 892 400 q 826 386 854 400 q 768 350 797 372 q 712 300 739 328 q 664 243 685 272 l 669 238 q 701 267 689 261 q 731 269 714 272 q 758 245 749 268 q 767 189 767 222 q 760 119 767 156 q 740 51 753 82 q 707 3 726 21 q 663 -7 688 -14 q 626 58 631 1 q 650 228 622 115 q 673 310 658 261 q 705 417 688 360 q 740 533 722 474 q 774 649 758 593 q 802 750 790 704 q 818 825 814 796 m 665 869 q 619 715 643 794 q 567 558 594 635 q 508 412 539 481 q 442 291 478 343 q 365 208 406 239 q 278 178 325 178 q 212 206 233 178 q 193 282 190 235 q 238 447 197 376 q 344 583 279 518 q 490 717 408 649 q 658 876 572 786 l 665 869 m 351 1097 q 366 1059 351 1074 q 404 1044 381 1044 q 442 1059 428 1044 q 457 1097 457 1074 q 442 1135 457 1121 q 404 1150 428 1150 q 366 1135 381 1150 q 351 1097 351 1121 m 485 1097 q 499 1059 485 1074 q 538 1044 514 1044 q 576 1059 561 1044 q 590 1097 590 1074 q 576 1135 590 1121 q 538 1150 561 1150 q 499 1135 514 1150 q 485 1097 485 1121 "},"":{"ha":942,"x_min":-17,"x_max":950,"o":"m 818 825 q 818 925 826 883 q 791 992 810 967 q 747 1030 772 1018 q 694 1042 721 1042 q 584 1015 639 1042 q 472 954 529 988 q 351 894 414 921 q 214 867 288 867 q 165 875 189 867 q 127 901 142 883 q 110 947 113 919 q 124 1013 107 975 l 121 1017 q 88 926 103 988 q 74 792 74 865 q 80 742 74 768 q 99 694 86 717 q 131 658 111 672 q 176 644 150 644 q 254 673 211 644 q 344 743 297 701 q 437 834 390 785 q 527 926 483 883 q 608 996 571 968 q 672 1024 646 1024 q 692 1017 685 1024 q 699 992 699 1011 q 644 883 697 940 q 510 764 590 826 q 339 633 431 701 q 168 491 247 564 q 36 341 89 418 q -17 182 -17 264 q -3 102 -17 143 q 40 29 11 61 q 112 -24 68 -3 q 217 -44 156 -44 q 306 7 257 -44 q 407 153 354 58 q 515 381 460 247 q 625 678 571 514 l 640 678 l 438 104 q 475 53 451 78 q 527 11 499 29 q 587 -17 556 -7 q 647 -28 618 -28 q 742 -2 696 -28 q 828 64 789 24 q 897 153 868 104 q 938 249 925 203 q 943 335 950 296 q 903 393 936 374 q 876 400 892 400 q 826 386 854 400 q 768 350 797 372 q 712 300 739 328 q 664 243 685 272 l 669 238 q 701 267 689 261 q 731 269 714 272 q 758 245 749 268 q 767 189 767 222 q 760 119 767 156 q 740 51 753 82 q 707 3 726 21 q 663 -7 688 -14 q 626 58 631 1 q 650 228 622 115 q 673 310 658 261 q 705 417 688 360 q 740 533 722 474 q 774 649 758 593 q 802 750 790 704 q 818 825 814 796 m 665 869 q 619 715 643 794 q 567 558 594 635 q 508 412 539 481 q 442 291 478 343 q 365 208 406 239 q 278 178 325 178 q 212 206 233 178 q 193 282 190 235 q 238 447 197 376 q 344 583 279 518 q 490 717 408 649 q 658 876 572 786 l 665 869 m 358 1157 q 390 1073 358 1104 q 472 1042 421 1042 q 555 1073 524 1042 q 586 1157 586 1104 q 555 1240 586 1208 q 472 1271 524 1271 q 390 1240 421 1271 q 358 1157 358 1208 m 394 1157 q 415 1214 394 1193 q 472 1235 436 1235 q 529 1214 508 1235 q 550 1157 550 1193 q 529 1099 550 1121 q 472 1078 508 1078 q 415 1099 436 1078 q 394 1157 394 1121 "},"":{"ha":733,"x_min":15,"x_max":714,"o":"m 667 1003 l 658 1000 q 662 947 665 975 q 647 894 658 918 q 617 856 636 871 q 574 840 597 840 q 485 870 524 840 q 408 936 447 900 q 320 1001 368 972 q 200 1031 272 1031 q 107 1008 143 1031 q 51 953 71 986 q 23 882 31 919 q 15 814 15 844 l 15 415 q 49 246 15 322 q 144 115 83 169 q 286 30 204 60 q 464 0 368 0 l 706 0 l 706 385 l 694 385 q 668 219 694 288 q 606 106 642 150 q 530 42 569 63 q 463 22 490 22 q 360 51 407 22 q 281 126 314 79 q 228 235 247 174 q 210 364 210 297 l 210 797 q 228 872 213 843 q 263 919 243 901 q 304 942 283 936 q 338 949 325 949 q 397 926 372 949 q 440 870 421 904 q 477 797 460 836 q 517 723 494 757 q 568 667 539 689 q 640 644 597 644 q 676 658 663 644 q 699 693 690 672 q 710 739 707 714 q 714 788 714 764 q 699 915 714 857 q 667 1003 685 974 m 479 -97 q 465 -115 479 -110 q 432 -119 451 -119 q 388 -104 406 -119 q 371 -68 371 -89 l 317 -68 q 344 -136 317 -107 q 431 -165 371 -165 q 505 -147 479 -165 q 531 -100 531 -128 q 510 -60 531 -74 q 466 -35 489 -46 q 428 -15 443 -25 q 425 15 413 -4 l 379 17 q 390 -22 375 -7 q 425 -49 406 -36 q 462 -72 444 -61 q 479 -97 479 -83 "},"":{"ha":840,"x_min":4,"x_max":815,"o":"m 740 1024 l 735 1022 q 744 967 747 996 q 728 914 742 938 q 692 875 714 890 q 646 860 669 860 q 547 888 594 860 q 447 948 499 915 q 338 1008 396 981 q 206 1035 279 1035 q 111 1013 147 1035 q 55 958 75 990 q 27 890 35 925 q 19 828 19 854 q 51 719 19 764 q 131 644 82 674 q 238 596 179 614 q 351 569 297 578 q 449 557 406 560 q 511 553 493 554 l 511 544 q 447 545 492 544 q 344 541 401 546 q 228 522 288 536 q 118 478 168 508 q 36 401 68 449 q 4 279 4 353 q 44 139 4 199 q 150 40 85 79 q 297 -18 215 1 q 458 -37 378 -37 q 569 -28 515 -37 q 667 1 624 -18 q 743 47 711 19 q 789 113 775 75 q 794 248 815 185 q 728 359 774 311 q 622 435 682 407 q 511 463 563 463 q 460 454 483 463 q 422 426 438 446 q 413 376 408 408 q 434 308 417 344 q 477 233 451 271 q 531 168 503 196 l 538 172 q 515 208 518 196 q 515 238 511 221 q 546 265 521 256 q 604 274 571 274 q 676 264 639 274 q 741 235 714 254 q 779 185 768 215 q 772 115 790 156 q 711 50 753 72 q 615 28 669 28 q 533 40 576 28 q 448 78 490 53 q 365 142 406 103 q 292 233 325 181 q 258 333 261 282 q 276 426 256 385 q 335 495 296 468 q 428 521 374 522 q 501 512 458 519 q 579 504 543 504 q 623 513 606 504 q 640 544 640 521 q 626 574 640 565 q 588 585 611 582 q 532 586 564 588 q 465 585 500 585 q 387 590 426 585 q 312 613 347 594 q 249 664 276 631 q 207 754 221 697 q 205 860 190 821 q 247 919 219 899 q 307 945 275 939 q 357 951 339 951 q 443 930 406 951 q 512 876 481 908 q 569 807 543 844 q 618 738 594 769 q 665 684 642 706 q 714 663 688 663 q 750 676 736 663 q 772 711 764 690 q 784 758 781 732 q 788 807 788 783 q 773 937 788 878 q 740 1024 758 996 m 353 1246 l 497 1042 l 563 1042 l 418 1246 l 353 1246 "},"":{"ha":840,"x_min":4,"x_max":815,"o":"m 740 1024 l 735 1022 q 744 967 747 996 q 728 914 742 938 q 692 875 714 890 q 646 860 669 860 q 547 888 594 860 q 447 948 499 915 q 338 1008 396 981 q 206 1035 279 1035 q 111 1013 147 1035 q 55 958 75 990 q 27 890 35 925 q 19 828 19 854 q 51 719 19 764 q 131 644 82 674 q 238 596 179 614 q 351 569 297 578 q 449 557 406 560 q 511 553 493 554 l 511 544 q 447 545 492 544 q 344 541 401 546 q 228 522 288 536 q 118 478 168 508 q 36 401 68 449 q 4 279 4 353 q 44 139 4 199 q 150 40 85 79 q 297 -18 215 1 q 458 -37 378 -37 q 569 -28 515 -37 q 667 1 624 -18 q 743 47 711 19 q 789 113 775 75 q 794 248 815 185 q 728 359 774 311 q 622 435 682 407 q 511 463 563 463 q 460 454 483 463 q 422 426 438 446 q 413 376 408 408 q 434 308 417 344 q 477 233 451 271 q 531 168 503 196 l 538 172 q 515 208 518 196 q 515 238 511 221 q 546 265 521 256 q 604 274 571 274 q 676 264 639 274 q 741 235 714 254 q 779 185 768 215 q 772 115 790 156 q 711 50 753 72 q 615 28 669 28 q 533 40 576 28 q 448 78 490 53 q 365 142 406 103 q 292 233 325 181 q 258 333 261 282 q 276 426 256 385 q 335 495 296 468 q 428 521 374 522 q 501 512 458 519 q 579 504 543 504 q 623 513 606 504 q 640 544 640 521 q 626 574 640 565 q 588 585 611 582 q 532 586 564 588 q 465 585 500 585 q 387 590 426 585 q 312 613 347 594 q 249 664 276 631 q 207 754 221 697 q 205 860 190 821 q 247 919 219 899 q 307 945 275 939 q 357 951 339 951 q 443 930 406 951 q 512 876 481 908 q 569 807 543 844 q 618 738 594 769 q 665 684 642 706 q 714 663 688 663 q 750 676 736 663 q 772 711 764 690 q 784 758 781 732 q 788 807 788 783 q 773 937 788 878 q 740 1024 758 996 m 353 1042 l 418 1042 l 563 1246 l 497 1246 l 353 1042 "},"":{"ha":840,"x_min":4,"x_max":815,"o":"m 740 1024 l 735 1022 q 744 967 747 996 q 728 914 742 938 q 692 875 714 890 q 646 860 669 860 q 547 888 594 860 q 447 948 499 915 q 338 1008 396 981 q 206 1035 279 1035 q 111 1013 147 1035 q 55 958 75 990 q 27 890 35 925 q 19 828 19 854 q 51 719 19 764 q 131 644 82 674 q 238 596 179 614 q 351 569 297 578 q 449 557 406 560 q 511 553 493 554 l 511 544 q 447 545 492 544 q 344 541 401 546 q 228 522 288 536 q 118 478 168 508 q 36 401 68 449 q 4 279 4 353 q 44 139 4 199 q 150 40 85 79 q 297 -18 215 1 q 458 -37 378 -37 q 569 -28 515 -37 q 667 1 624 -18 q 743 47 711 19 q 789 113 775 75 q 794 248 815 185 q 728 359 774 311 q 622 435 682 407 q 511 463 563 463 q 460 454 483 463 q 422 426 438 446 q 413 376 408 408 q 434 308 417 344 q 477 233 451 271 q 531 168 503 196 l 538 172 q 515 208 518 196 q 515 238 511 221 q 546 265 521 256 q 604 274 571 274 q 676 264 639 274 q 741 235 714 254 q 779 185 768 215 q 772 115 790 156 q 711 50 753 72 q 615 28 669 28 q 533 40 576 28 q 448 78 490 53 q 365 142 406 103 q 292 233 325 181 q 258 333 261 282 q 276 426 256 385 q 335 495 296 468 q 428 521 374 522 q 501 512 458 519 q 579 504 543 504 q 623 513 606 504 q 640 544 640 521 q 626 574 640 565 q 588 585 611 582 q 532 586 564 588 q 465 585 500 585 q 387 590 426 585 q 312 613 347 594 q 249 664 276 631 q 207 754 221 697 q 205 860 190 821 q 247 919 219 899 q 307 945 275 939 q 357 951 339 951 q 443 930 406 951 q 512 876 481 908 q 569 807 543 844 q 618 738 594 769 q 665 684 642 706 q 714 663 688 663 q 750 676 736 663 q 772 711 764 690 q 784 758 781 732 q 788 807 788 783 q 773 937 788 878 q 740 1024 758 996 m 258 1042 l 324 1042 l 436 1200 l 547 1042 l 613 1042 l 468 1246 l 403 1246 l 258 1042 "},"":{"ha":840,"x_min":4,"x_max":815,"o":"m 740 1024 l 735 1022 q 744 967 747 996 q 728 914 742 938 q 692 875 714 890 q 646 860 669 860 q 547 888 594 860 q 447 948 499 915 q 338 1008 396 981 q 206 1035 279 1035 q 111 1013 147 1035 q 55 958 75 990 q 27 890 35 925 q 19 828 19 854 q 51 719 19 764 q 131 644 82 674 q 238 596 179 614 q 351 569 297 578 q 449 557 406 560 q 511 553 493 554 l 511 544 q 447 545 492 544 q 344 541 401 546 q 228 522 288 536 q 118 478 168 508 q 36 401 68 449 q 4 279 4 353 q 44 139 4 199 q 150 40 85 79 q 297 -18 215 1 q 458 -37 378 -37 q 569 -28 515 -37 q 667 1 624 -18 q 743 47 711 19 q 789 113 775 75 q 794 248 815 185 q 728 359 774 311 q 622 435 682 407 q 511 463 563 463 q 460 454 483 463 q 422 426 438 446 q 413 376 408 408 q 434 308 417 344 q 477 233 451 271 q 531 168 503 196 l 538 172 q 515 208 518 196 q 515 238 511 221 q 546 265 521 256 q 604 274 571 274 q 676 264 639 274 q 741 235 714 254 q 779 185 768 215 q 772 115 790 156 q 711 50 753 72 q 615 28 669 28 q 533 40 576 28 q 448 78 490 53 q 365 142 406 103 q 292 233 325 181 q 258 333 261 282 q 276 426 256 385 q 335 495 296 468 q 428 521 374 522 q 501 512 458 519 q 579 504 543 504 q 623 513 606 504 q 640 544 640 521 q 626 574 640 565 q 588 585 611 582 q 532 586 564 588 q 465 585 500 585 q 387 590 426 585 q 312 613 347 594 q 249 664 276 631 q 207 754 221 697 q 205 860 190 821 q 247 919 219 899 q 307 945 275 939 q 357 951 339 951 q 443 930 406 951 q 512 876 481 908 q 569 807 543 844 q 618 738 594 769 q 665 684 642 706 q 714 663 688 663 q 750 676 736 663 q 772 711 764 690 q 784 758 781 732 q 788 807 788 783 q 773 937 788 878 q 740 1024 758 996 m 315 1097 q 330 1059 315 1074 q 368 1044 344 1044 q 406 1059 392 1044 q 421 1097 421 1074 q 406 1135 421 1121 q 368 1150 392 1150 q 330 1135 344 1150 q 315 1097 315 1121 m 449 1097 q 463 1059 449 1074 q 501 1044 478 1044 q 540 1059 525 1044 q 554 1097 554 1074 q 540 1135 554 1121 q 501 1150 525 1150 q 463 1135 478 1150 q 449 1097 449 1121 "},"":{"ha":554,"x_min":-7,"x_max":560,"o":"m 39 104 l 282 -46 l 560 240 l 546 251 q 520 219 535 236 q 489 189 506 203 q 453 166 472 175 q 413 157 433 157 l 242 260 l 413 450 l 413 768 l 514 893 l 271 1043 l -7 757 l 7 746 q 67 813 35 785 q 136 840 99 840 q 193 833 163 840 l 193 294 l 39 104 m 188 1283 l 332 1079 l 397 1079 l 253 1283 l 188 1283 "},"":{"ha":554,"x_min":-7,"x_max":560,"o":"m 39 104 l 282 -46 l 560 240 l 546 251 q 520 219 535 236 q 489 189 506 203 q 453 166 472 175 q 413 157 433 157 l 242 260 l 413 450 l 413 768 l 514 893 l 271 1043 l -7 757 l 7 746 q 67 813 35 785 q 136 840 99 840 q 193 833 163 840 l 193 294 l 39 104 m 188 1079 l 253 1079 l 397 1283 l 332 1283 l 188 1079 "},"":{"ha":554,"x_min":-7,"x_max":560,"o":"m 39 104 l 282 -46 l 560 240 l 546 251 q 520 219 535 236 q 489 189 506 203 q 453 166 472 175 q 413 157 433 157 l 242 260 l 413 450 l 413 768 l 514 893 l 271 1043 l -7 757 l 7 746 q 67 813 35 785 q 136 840 99 840 q 193 833 163 840 l 193 294 l 39 104 m 93 1079 l 158 1079 l 271 1238 l 382 1079 l 447 1079 l 303 1283 l 238 1283 l 93 1079 "},"":{"ha":554,"x_min":-7,"x_max":560,"o":"m 39 104 l 282 -46 l 560 240 l 546 251 q 520 219 535 236 q 489 189 506 203 q 453 166 472 175 q 413 157 433 157 l 242 260 l 413 450 l 413 768 l 514 893 l 271 1043 l -7 757 l 7 746 q 67 813 35 785 q 136 840 99 840 q 193 833 163 840 l 193 294 l 39 104 m 150 1135 q 165 1097 150 1111 q 203 1082 179 1082 q 241 1097 226 1082 q 256 1135 256 1111 q 241 1173 256 1158 q 203 1188 226 1188 q 165 1173 179 1188 q 150 1135 150 1158 m 283 1135 q 298 1097 283 1111 q 336 1082 313 1082 q 374 1097 360 1082 q 389 1135 389 1111 q 374 1173 389 1158 q 336 1188 360 1188 q 298 1173 313 1188 q 283 1135 283 1158 "},"":{"ha":1265,"x_min":-56,"x_max":1568,"o":"m 107 1032 q 72 941 88 1003 q 57 806 57 879 q 60 756 57 782 q 72 708 64 729 q 96 672 81 686 q 135 657 111 657 q 185 679 161 657 q 235 734 210 701 q 288 806 260 767 q 349 877 315 844 q 425 932 383 910 q 519 954 467 954 q 535 953 525 954 q 558 951 544 953 q 492 819 529 892 q 409 672 454 746 q 314 529 364 599 q 211 407 264 460 q 104 323 158 354 q -3 294 50 292 l -56 -57 q 63 -14 7 -57 q 172 103 119 29 q 273 277 224 178 q 372 488 322 376 q 474 719 422 600 q 583 950 526 838 q 668 938 621 946 q 758 915 715 929 q 833 882 801 901 q 869 835 865 863 q 869 778 874 810 q 849 717 864 747 q 776 629 824 669 q 669 551 728 589 q 551 476 611 514 q 440 393 490 438 q 358 297 390 349 q 326 179 326 244 q 358 65 326 113 q 433 -12 389 18 q 526 -58 478 -43 q 608 -72 574 -72 q 713 -52 665 -72 q 798 -3 760 -32 q 864 57 836 25 q 910 114 892 89 q 973 232 942 158 q 1037 393 1004 306 q 1104 574 1069 481 q 1178 749 1139 667 q 1260 893 1217 831 q 1356 983 1304 956 q 1408 1006 1383 999 q 1458 1015 1433 1013 q 1510 1018 1483 1018 q 1565 1018 1536 1018 l 1568 1031 l 1364 1031 q 1262 1023 1319 1031 q 1149 995 1204 1015 q 1049 940 1094 975 q 982 851 1003 906 q 925 663 947 764 q 883 462 903 563 q 844 267 864 361 q 794 102 824 174 q 721 -12 765 31 q 610 -56 676 -56 q 566 -44 585 -56 q 535 -16 547 -33 q 517 23 522 1 q 511 65 511 44 q 531 157 511 106 q 583 264 551 208 q 653 377 614 319 q 730 490 692 435 q 802 596 768 546 q 856 685 836 646 q 894 832 897 767 q 860 944 892 897 q 776 1017 829 992 q 663 1043 722 1043 q 517 1015 579 1043 q 403 953 456 988 q 304 890 351 918 q 204 861 257 861 q 160 877 179 861 q 128 918 140 893 q 112 973 115 943 q 115 1029 108 1003 l 107 1032 m 721 1097 l 721 1057 q 741 1076 728 1071 q 771 1081 754 1081 q 841 1070 803 1081 q 911 1060 879 1060 q 961 1085 947 1060 l 961 1125 q 942 1106 954 1111 q 913 1101 929 1101 q 842 1111 881 1101 q 772 1121 804 1121 q 741 1116 754 1121 q 721 1097 728 1111 "},"":{"ha":1065,"x_min":-81,"x_max":1086,"o":"m 1004 558 q 958 513 979 533 q 915 476 936 493 q 872 444 894 460 q 822 411 850 428 q 803 319 814 369 q 776 217 793 268 q 737 117 760 165 q 683 31 714 68 q 610 -30 651 -7 q 515 -53 568 -53 q 444 -24 471 -53 q 402 52 417 6 q 383 156 388 99 q 381 272 379 214 q 542 297 460 276 q 703 353 625 318 q 851 435 782 388 q 973 542 921 483 q 1056 667 1025 600 q 1086 806 1086 733 q 1064 915 1086 869 q 1008 989 1042 960 q 934 1032 974 1018 q 858 1046 894 1046 q 703 1019 782 1046 q 552 945 625 993 q 415 831 479 897 q 302 685 350 765 q 226 515 254 606 q 199 328 199 424 q 220 307 199 317 q 271 290 242 297 q 110 346 176 303 q 12 447 44 389 q -17 570 -21 506 q 31 689 -14 635 q 92 742 58 725 q 158 758 126 758 q 216 743 190 758 q 257 696 242 728 l 261 696 q 226 756 247 725 q 178 813 204 788 q 122 856 151 839 q 61 872 92 872 q 15 861 38 872 q -28 822 -7 850 q -76 690 -71 768 q -51 533 -81 611 q 42 388 -21 454 q 201 292 106 322 q 232 148 210 214 q 292 34 254 82 q 385 -41 331 -14 q 515 -68 440 -68 q 673 -25 589 -68 q 829 93 757 18 q 951 267 901 168 q 1004 479 1000 367 q 1005 527 1006 506 q 1004 558 1004 549 m 456 444 l 465 442 q 469 522 464 476 q 488 616 474 568 q 524 708 501 664 q 578 786 546 753 q 652 838 610 819 q 749 849 694 856 q 831 814 803 843 q 865 733 858 785 q 862 607 872 682 q 828 433 851 532 q 614 329 731 368 q 381 286 497 290 q 382 384 381 318 q 411 557 383 450 q 481 743 439 657 q 579 893 524 829 q 701 993 635 957 q 839 1029 767 1029 q 924 1016 882 1029 q 1001 974 967 1003 q 1056 903 1035 946 q 1076 803 1076 861 q 1057 696 1076 747 q 1003 596 1038 644 q 988 694 1003 644 q 942 785 972 744 q 863 852 911 825 q 747 883 814 879 q 649 866 693 886 q 573 810 606 846 q 518 727 540 774 q 481 631 496 681 q 461 532 467 581 q 456 444 456 483 m 521 1289 l 665 1085 l 731 1085 l 586 1289 l 521 1289 "},"":{"ha":1065,"x_min":-81,"x_max":1086,"o":"m 1004 558 q 958 513 979 533 q 915 476 936 493 q 872 444 894 460 q 822 411 850 428 q 803 319 814 369 q 776 217 793 268 q 737 117 760 165 q 683 31 714 68 q 610 -30 651 -7 q 515 -53 568 -53 q 444 -24 471 -53 q 402 52 417 6 q 383 156 388 99 q 381 272 379 214 q 542 297 460 276 q 703 353 625 318 q 851 435 782 388 q 973 542 921 483 q 1056 667 1025 600 q 1086 806 1086 733 q 1064 915 1086 869 q 1008 989 1042 960 q 934 1032 974 1018 q 858 1046 894 1046 q 703 1019 782 1046 q 552 945 625 993 q 415 831 479 897 q 302 685 350 765 q 226 515 254 606 q 199 328 199 424 q 220 307 199 317 q 271 290 242 297 q 110 346 176 303 q 12 447 44 389 q -17 570 -21 506 q 31 689 -14 635 q 92 742 58 725 q 158 758 126 758 q 216 743 190 758 q 257 696 242 728 l 261 696 q 226 756 247 725 q 178 813 204 788 q 122 856 151 839 q 61 872 92 872 q 15 861 38 872 q -28 822 -7 850 q -76 690 -71 768 q -51 533 -81 611 q 42 388 -21 454 q 201 292 106 322 q 232 148 210 214 q 292 34 254 82 q 385 -41 331 -14 q 515 -68 440 -68 q 673 -25 589 -68 q 829 93 757 18 q 951 267 901 168 q 1004 479 1000 367 q 1005 527 1006 506 q 1004 558 1004 549 m 456 444 l 465 442 q 469 522 464 476 q 488 616 474 568 q 524 708 501 664 q 578 786 546 753 q 652 838 610 819 q 749 849 694 856 q 831 814 803 843 q 865 733 858 785 q 862 607 872 682 q 828 433 851 532 q 614 329 731 368 q 381 286 497 290 q 382 384 381 318 q 411 557 383 450 q 481 743 439 657 q 579 893 524 829 q 701 993 635 957 q 839 1029 767 1029 q 924 1016 882 1029 q 1001 974 967 1003 q 1056 903 1035 946 q 1076 803 1076 861 q 1057 696 1076 747 q 1003 596 1038 644 q 988 694 1003 644 q 942 785 972 744 q 863 852 911 825 q 747 883 814 879 q 649 866 693 886 q 573 810 606 846 q 518 727 540 774 q 481 631 496 681 q 461 532 467 581 q 456 444 456 483 m 521 1085 l 586 1085 l 731 1289 l 665 1289 l 521 1085 "},"":{"ha":1065,"x_min":-81,"x_max":1086,"o":"m 1004 558 q 958 513 979 533 q 915 476 936 493 q 872 444 894 460 q 822 411 850 428 q 803 319 814 369 q 776 217 793 268 q 737 117 760 165 q 683 31 714 68 q 610 -30 651 -7 q 515 -53 568 -53 q 444 -24 471 -53 q 402 52 417 6 q 383 156 388 99 q 381 272 379 214 q 542 297 460 276 q 703 353 625 318 q 851 435 782 388 q 973 542 921 483 q 1056 667 1025 600 q 1086 806 1086 733 q 1064 915 1086 869 q 1008 989 1042 960 q 934 1032 974 1018 q 858 1046 894 1046 q 703 1019 782 1046 q 552 945 625 993 q 415 831 479 897 q 302 685 350 765 q 226 515 254 606 q 199 328 199 424 q 220 307 199 317 q 271 290 242 297 q 110 346 176 303 q 12 447 44 389 q -17 570 -21 506 q 31 689 -14 635 q 92 742 58 725 q 158 758 126 758 q 216 743 190 758 q 257 696 242 728 l 261 696 q 226 756 247 725 q 178 813 204 788 q 122 856 151 839 q 61 872 92 872 q 15 861 38 872 q -28 822 -7 850 q -76 690 -71 768 q -51 533 -81 611 q 42 388 -21 454 q 201 292 106 322 q 232 148 210 214 q 292 34 254 82 q 385 -41 331 -14 q 515 -68 440 -68 q 673 -25 589 -68 q 829 93 757 18 q 951 267 901 168 q 1004 479 1000 367 q 1005 527 1006 506 q 1004 558 1004 549 m 456 444 l 465 442 q 469 522 464 476 q 488 616 474 568 q 524 708 501 664 q 578 786 546 753 q 652 838 610 819 q 749 849 694 856 q 831 814 803 843 q 865 733 858 785 q 862 607 872 682 q 828 433 851 532 q 614 329 731 368 q 381 286 497 290 q 382 384 381 318 q 411 557 383 450 q 481 743 439 657 q 579 893 524 829 q 701 993 635 957 q 839 1029 767 1029 q 924 1016 882 1029 q 1001 974 967 1003 q 1056 903 1035 946 q 1076 803 1076 861 q 1057 696 1076 747 q 1003 596 1038 644 q 988 694 1003 644 q 942 785 972 744 q 863 852 911 825 q 747 883 814 879 q 649 866 693 886 q 573 810 606 846 q 518 727 540 774 q 481 631 496 681 q 461 532 467 581 q 456 444 456 483 m 426 1085 l 492 1085 l 604 1243 l 715 1085 l 781 1085 l 636 1289 l 571 1289 l 426 1085 "},"":{"ha":1065,"x_min":-81,"x_max":1086,"o":"m 1004 558 q 958 513 979 533 q 915 476 936 493 q 872 444 894 460 q 822 411 850 428 q 803 319 814 369 q 776 217 793 268 q 737 117 760 165 q 683 31 714 68 q 610 -30 651 -7 q 515 -53 568 -53 q 444 -24 471 -53 q 402 52 417 6 q 383 156 388 99 q 381 272 379 214 q 542 297 460 276 q 703 353 625 318 q 851 435 782 388 q 973 542 921 483 q 1056 667 1025 600 q 1086 806 1086 733 q 1064 915 1086 869 q 1008 989 1042 960 q 934 1032 974 1018 q 858 1046 894 1046 q 703 1019 782 1046 q 552 945 625 993 q 415 831 479 897 q 302 685 350 765 q 226 515 254 606 q 199 328 199 424 q 220 307 199 317 q 271 290 242 297 q 110 346 176 303 q 12 447 44 389 q -17 570 -21 506 q 31 689 -14 635 q 92 742 58 725 q 158 758 126 758 q 216 743 190 758 q 257 696 242 728 l 261 696 q 226 756 247 725 q 178 813 204 788 q 122 856 151 839 q 61 872 92 872 q 15 861 38 872 q -28 822 -7 850 q -76 690 -71 768 q -51 533 -81 611 q 42 388 -21 454 q 201 292 106 322 q 232 148 210 214 q 292 34 254 82 q 385 -41 331 -14 q 515 -68 440 -68 q 673 -25 589 -68 q 829 93 757 18 q 951 267 901 168 q 1004 479 1000 367 q 1005 527 1006 506 q 1004 558 1004 549 m 456 444 l 465 442 q 469 522 464 476 q 488 616 474 568 q 524 708 501 664 q 578 786 546 753 q 652 838 610 819 q 749 849 694 856 q 831 814 803 843 q 865 733 858 785 q 862 607 872 682 q 828 433 851 532 q 614 329 731 368 q 381 286 497 290 q 382 384 381 318 q 411 557 383 450 q 481 743 439 657 q 579 893 524 829 q 701 993 635 957 q 839 1029 767 1029 q 924 1016 882 1029 q 1001 974 967 1003 q 1056 903 1035 946 q 1076 803 1076 861 q 1057 696 1076 747 q 1003 596 1038 644 q 988 694 1003 644 q 942 785 972 744 q 863 852 911 825 q 747 883 814 879 q 649 866 693 886 q 573 810 606 846 q 518 727 540 774 q 481 631 496 681 q 461 532 467 581 q 456 444 456 483 m 481 1140 l 481 1100 q 501 1119 488 1114 q 531 1124 514 1124 q 601 1113 563 1124 q 671 1103 639 1103 q 721 1128 707 1103 l 721 1168 q 701 1149 714 1154 q 672 1144 689 1144 q 602 1154 640 1144 q 532 1164 564 1164 q 501 1159 514 1164 q 481 1140 488 1154 "},"":{"ha":1065,"x_min":-81,"x_max":1086,"o":"m 1004 558 q 958 513 979 533 q 915 476 936 493 q 872 444 894 460 q 822 411 850 428 q 803 319 814 369 q 776 217 793 268 q 737 117 760 165 q 683 31 714 68 q 610 -30 651 -7 q 515 -53 568 -53 q 444 -24 471 -53 q 402 52 417 6 q 383 156 388 99 q 381 272 379 214 q 542 297 460 276 q 703 353 625 318 q 851 435 782 388 q 973 542 921 483 q 1056 667 1025 600 q 1086 806 1086 733 q 1064 915 1086 869 q 1008 989 1042 960 q 934 1032 974 1018 q 858 1046 894 1046 q 703 1019 782 1046 q 552 945 625 993 q 415 831 479 897 q 302 685 350 765 q 226 515 254 606 q 199 328 199 424 q 220 307 199 317 q 271 290 242 297 q 110 346 176 303 q 12 447 44 389 q -17 570 -21 506 q 31 689 -14 635 q 92 742 58 725 q 158 758 126 758 q 216 743 190 758 q 257 696 242 728 l 261 696 q 226 756 247 725 q 178 813 204 788 q 122 856 151 839 q 61 872 92 872 q 15 861 38 872 q -28 822 -7 850 q -76 690 -71 768 q -51 533 -81 611 q 42 388 -21 454 q 201 292 106 322 q 232 148 210 214 q 292 34 254 82 q 385 -41 331 -14 q 515 -68 440 -68 q 673 -25 589 -68 q 829 93 757 18 q 951 267 901 168 q 1004 479 1000 367 q 1005 527 1006 506 q 1004 558 1004 549 m 456 444 l 465 442 q 469 522 464 476 q 488 616 474 568 q 524 708 501 664 q 578 786 546 753 q 652 838 610 819 q 749 849 694 856 q 831 814 803 843 q 865 733 858 785 q 862 607 872 682 q 828 433 851 532 q 614 329 731 368 q 381 286 497 290 q 382 384 381 318 q 411 557 383 450 q 481 743 439 657 q 579 893 524 829 q 701 993 635 957 q 839 1029 767 1029 q 924 1016 882 1029 q 1001 974 967 1003 q 1056 903 1035 946 q 1076 803 1076 861 q 1057 696 1076 747 q 1003 596 1038 644 q 988 694 1003 644 q 942 785 972 744 q 863 852 911 825 q 747 883 814 879 q 649 866 693 886 q 573 810 606 846 q 518 727 540 774 q 481 631 496 681 q 461 532 467 581 q 456 444 456 483 m 483 1140 q 498 1102 483 1117 q 536 1088 513 1088 q 574 1102 560 1088 q 589 1140 589 1117 q 574 1178 589 1164 q 536 1193 560 1193 q 498 1178 513 1193 q 483 1140 483 1164 m 617 1140 q 631 1102 617 1117 q 669 1088 646 1088 q 708 1102 693 1088 q 722 1140 722 1117 q 708 1178 722 1164 q 669 1193 693 1193 q 631 1178 646 1193 q 617 1140 617 1164 "},"":{"ha":967,"x_min":64,"x_max":967,"o":"m 532 1043 l 532 1051 q 471 1040 501 1051 q 402 1015 440 1029 q 315 990 364 1001 q 196 979 265 979 q 151 988 174 979 q 114 1014 128 996 q 97 1060 100 1032 q 111 1125 94 1088 l 108 1131 q 78 1039 92 1100 q 64 903 64 978 q 69 853 64 879 q 88 804 75 826 q 118 767 100 782 q 161 753 136 753 q 209 765 185 753 q 257 795 233 776 q 304 838 281 814 q 350 889 328 863 q 262 725 307 810 q 181 552 217 640 q 123 375 146 464 q 100 199 100 286 q 106 122 100 161 q 128 49 113 82 q 171 -6 143 15 q 240 -26 199 -26 q 345 6 296 -26 q 438 96 394 39 q 519 229 482 153 q 585 394 556 306 q 638 577 615 482 q 676 765 661 672 q 675 702 675 738 q 675 622 675 667 q 681 516 675 568 q 690 413 686 464 q 695 309 694 361 q 688 201 696 257 l 654 158 l 578 158 l 438 0 l 843 0 l 967 158 l 674 158 l 869 369 q 840 598 850 482 q 833 816 829 714 q 861 999 838 918 q 935 1121 885 1079 l 929 1129 l 679 938 q 653 733 669 833 q 613 542 636 632 q 562 375 590 451 q 499 244 533 299 q 426 161 465 190 q 342 136 386 132 q 267 159 296 140 q 220 208 238 178 q 197 276 203 238 q 190 360 190 315 q 203 458 190 394 q 240 598 217 522 q 297 753 264 674 q 367 897 329 832 q 447 1002 404 961 q 532 1043 489 1043 m 432 1301 l 576 1097 l 642 1097 l 497 1301 l 432 1301 "},"":{"ha":967,"x_min":64,"x_max":967,"o":"m 532 1043 l 532 1051 q 471 1040 501 1051 q 402 1015 440 1029 q 315 990 364 1001 q 196 979 265 979 q 151 988 174 979 q 114 1014 128 996 q 97 1060 100 1032 q 111 1125 94 1088 l 108 1131 q 78 1039 92 1100 q 64 903 64 978 q 69 853 64 879 q 88 804 75 826 q 118 767 100 782 q 161 753 136 753 q 209 765 185 753 q 257 795 233 776 q 304 838 281 814 q 350 889 328 863 q 262 725 307 810 q 181 552 217 640 q 123 375 146 464 q 100 199 100 286 q 106 122 100 161 q 128 49 113 82 q 171 -6 143 15 q 240 -26 199 -26 q 345 6 296 -26 q 438 96 394 39 q 519 229 482 153 q 585 394 556 306 q 638 577 615 482 q 676 765 661 672 q 675 702 675 738 q 675 622 675 667 q 681 516 675 568 q 690 413 686 464 q 695 309 694 361 q 688 201 696 257 l 654 158 l 578 158 l 438 0 l 843 0 l 967 158 l 674 158 l 869 369 q 840 598 850 482 q 833 816 829 714 q 861 999 838 918 q 935 1121 885 1079 l 929 1129 l 679 938 q 653 733 669 833 q 613 542 636 632 q 562 375 590 451 q 499 244 533 299 q 426 161 465 190 q 342 136 386 132 q 267 159 296 140 q 220 208 238 178 q 197 276 203 238 q 190 360 190 315 q 203 458 190 394 q 240 598 217 522 q 297 753 264 674 q 367 897 329 832 q 447 1002 404 961 q 532 1043 489 1043 m 432 1097 l 497 1097 l 642 1301 l 576 1301 l 432 1097 "},"":{"ha":967,"x_min":64,"x_max":967,"o":"m 532 1043 l 532 1051 q 471 1040 501 1051 q 402 1015 440 1029 q 315 990 364 1001 q 196 979 265 979 q 151 988 174 979 q 114 1014 128 996 q 97 1060 100 1032 q 111 1125 94 1088 l 108 1131 q 78 1039 92 1100 q 64 903 64 978 q 69 853 64 879 q 88 804 75 826 q 118 767 100 782 q 161 753 136 753 q 209 765 185 753 q 257 795 233 776 q 304 838 281 814 q 350 889 328 863 q 262 725 307 810 q 181 552 217 640 q 123 375 146 464 q 100 199 100 286 q 106 122 100 161 q 128 49 113 82 q 171 -6 143 15 q 240 -26 199 -26 q 345 6 296 -26 q 438 96 394 39 q 519 229 482 153 q 585 394 556 306 q 638 577 615 482 q 676 765 661 672 q 675 702 675 738 q 675 622 675 667 q 681 516 675 568 q 690 413 686 464 q 695 309 694 361 q 688 201 696 257 l 654 158 l 578 158 l 438 0 l 843 0 l 967 158 l 674 158 l 869 369 q 840 598 850 482 q 833 816 829 714 q 861 999 838 918 q 935 1121 885 1079 l 929 1129 l 679 938 q 653 733 669 833 q 613 542 636 632 q 562 375 590 451 q 499 244 533 299 q 426 161 465 190 q 342 136 386 132 q 267 159 296 140 q 220 208 238 178 q 197 276 203 238 q 190 360 190 315 q 203 458 190 394 q 240 598 217 522 q 297 753 264 674 q 367 897 329 832 q 447 1002 404 961 q 532 1043 489 1043 m 338 1097 l 403 1097 l 515 1256 l 626 1097 l 692 1097 l 547 1301 l 482 1301 l 338 1097 "},"":{"ha":967,"x_min":64,"x_max":967,"o":"m 532 1043 l 532 1051 q 471 1040 501 1051 q 402 1015 440 1029 q 315 990 364 1001 q 196 979 265 979 q 151 988 174 979 q 114 1014 128 996 q 97 1060 100 1032 q 111 1125 94 1088 l 108 1131 q 78 1039 92 1100 q 64 903 64 978 q 69 853 64 879 q 88 804 75 826 q 118 767 100 782 q 161 753 136 753 q 209 765 185 753 q 257 795 233 776 q 304 838 281 814 q 350 889 328 863 q 262 725 307 810 q 181 552 217 640 q 123 375 146 464 q 100 199 100 286 q 106 122 100 161 q 128 49 113 82 q 171 -6 143 15 q 240 -26 199 -26 q 345 6 296 -26 q 438 96 394 39 q 519 229 482 153 q 585 394 556 306 q 638 577 615 482 q 676 765 661 672 q 675 702 675 738 q 675 622 675 667 q 681 516 675 568 q 690 413 686 464 q 695 309 694 361 q 688 201 696 257 l 654 158 l 578 158 l 438 0 l 843 0 l 967 158 l 674 158 l 869 369 q 840 598 850 482 q 833 816 829 714 q 861 999 838 918 q 935 1121 885 1079 l 929 1129 l 679 938 q 653 733 669 833 q 613 542 636 632 q 562 375 590 451 q 499 244 533 299 q 426 161 465 190 q 342 136 386 132 q 267 159 296 140 q 220 208 238 178 q 197 276 203 238 q 190 360 190 315 q 203 458 190 394 q 240 598 217 522 q 297 753 264 674 q 367 897 329 832 q 447 1002 404 961 q 532 1043 489 1043 m 394 1153 q 409 1115 394 1129 q 447 1100 424 1100 q 485 1115 471 1100 q 500 1153 500 1129 q 485 1191 500 1176 q 447 1206 471 1206 q 409 1191 424 1206 q 394 1153 394 1176 m 528 1153 q 542 1115 528 1129 q 581 1100 557 1100 q 619 1115 604 1100 q 633 1153 633 1129 q 619 1191 633 1176 q 581 1206 604 1206 q 542 1191 557 1206 q 528 1153 528 1176 "},"":{"ha":671,"x_min":10,"x_max":642,"o":"m 436 201 l 468 0 l 642 0 l 490 972 l 161 972 l 10 0 l 178 0 l 210 201 l 436 201 m 417 333 l 229 333 l 324 932 l 417 333 m 240 1246 l 385 1042 l 450 1042 l 306 1246 l 240 1246 "},"":{"ha":671,"x_min":10,"x_max":642,"o":"m 436 201 l 468 0 l 642 0 l 490 972 l 161 972 l 10 0 l 178 0 l 210 201 l 436 201 m 417 333 l 229 333 l 324 932 l 417 333 m 240 1042 l 306 1042 l 450 1246 l 385 1246 l 240 1042 "},"":{"ha":671,"x_min":10,"x_max":642,"o":"m 436 201 l 468 0 l 642 0 l 490 972 l 161 972 l 10 0 l 178 0 l 210 201 l 436 201 m 417 333 l 229 333 l 324 932 l 417 333 m 146 1042 l 211 1042 l 324 1200 l 435 1042 l 500 1042 l 356 1246 l 290 1246 l 146 1042 "},"":{"ha":671,"x_min":10,"x_max":642,"o":"m 436 201 l 468 0 l 642 0 l 490 972 l 161 972 l 10 0 l 178 0 l 210 201 l 436 201 m 417 333 l 229 333 l 324 932 l 417 333 m 200 1097 l 200 1057 q 220 1076 207 1071 q 250 1081 233 1081 q 320 1070 282 1081 q 390 1060 358 1060 q 440 1085 426 1060 l 440 1125 q 421 1106 433 1111 q 392 1101 408 1101 q 322 1111 360 1101 q 251 1121 283 1121 q 220 1116 233 1121 q 200 1097 207 1111 "},"":{"ha":671,"x_min":10,"x_max":642,"o":"m 436 201 l 468 0 l 642 0 l 490 972 l 161 972 l 10 0 l 178 0 l 210 201 l 436 201 m 417 333 l 229 333 l 324 932 l 417 333 m 203 1097 q 217 1059 203 1074 q 256 1044 232 1044 q 294 1059 279 1044 q 308 1097 308 1074 q 294 1135 308 1121 q 256 1150 279 1150 q 217 1135 232 1150 q 203 1097 203 1121 m 336 1097 q 351 1059 336 1074 q 389 1044 365 1044 q 427 1059 413 1044 q 442 1097 442 1074 q 427 1135 442 1121 q 389 1150 413 1150 q 351 1135 365 1150 q 336 1097 336 1121 "},"":{"ha":671,"x_min":10,"x_max":642,"o":"m 436 201 l 468 0 l 642 0 l 490 972 l 161 972 l 10 0 l 178 0 l 210 201 l 436 201 m 417 333 l 229 333 l 324 932 l 417 333 m 210 1157 q 241 1073 210 1104 q 324 1042 272 1042 q 406 1073 375 1042 q 438 1157 438 1104 q 406 1240 438 1208 q 324 1271 375 1271 q 241 1240 272 1271 q 210 1157 210 1208 m 246 1157 q 267 1214 246 1193 q 324 1235 288 1235 q 381 1214 360 1235 q 401 1157 401 1193 q 381 1099 401 1121 q 324 1078 360 1078 q 267 1099 288 1078 q 246 1157 246 1121 "},"":{"ha":872,"x_min":13,"x_max":853,"o":"m 853 1025 l 563 913 q 541 630 556 743 q 500 450 526 517 q 434 358 474 383 q 336 338 394 332 q 233 384 267 343 q 190 483 199 425 q 197 607 182 542 q 240 728 211 672 q 308 820 268 783 q 388 857 347 857 l 482 1033 q 421 1023 451 1033 q 352 999 390 1013 q 264 976 314 986 q 144 965 214 965 q 99 974 122 965 q 63 999 76 982 q 46 1041 49 1015 q 60 1103 43 1067 l 57 1107 q 26 1022 40 1079 q 13 894 13 964 q 18 847 13 872 q 36 801 24 822 q 67 767 49 781 q 110 754 85 754 q 162 769 133 754 q 219 806 190 783 q 275 856 247 829 q 325 908 303 883 q 290 849 314 890 q 238 754 267 808 q 181 637 210 700 q 130 510 151 574 q 98 389 108 447 q 97 285 88 331 q 138 213 106 240 q 233 186 169 186 q 361 228 306 186 q 463 347 417 271 q 550 531 510 424 q 632 768 590 638 q 604 572 618 664 q 591 393 590 481 q 613 219 592 306 q 690 38 635 132 q 735 -65 724 -19 q 715 -142 746 -111 q 604 -186 685 -172 q 374 -193 524 -200 q 312 -188 349 -192 q 245 -174 275 -185 q 202 -140 215 -162 q 210 -81 189 -118 q 266 1 240 -28 q 322 29 292 29 q 415 -16 361 29 q 556 -160 468 -61 l 611 156 q 555 160 581 158 q 503 163 529 161 q 447 167 476 165 q 379 168 417 168 q 344 140 369 168 q 288 70 319 113 q 225 -24 257 28 q 167 -123 193 -75 q 125 -208 140 -171 q 113 -261 110 -246 q 183 -321 115 -304 q 367 -337 251 -337 q 508 -324 444 -337 q 590 -290 571 -311 l 804 -76 q 835 5 824 -36 q 846 90 846 46 q 830 189 846 143 q 790 277 814 235 q 738 360 767 319 q 686 444 710 401 q 647 534 663 488 q 631 633 631 581 q 645 685 631 653 q 681 757 660 718 q 730 838 703 796 q 781 917 757 879 q 825 983 806 954 q 853 1025 844 1013 m 353 1094 l 418 1094 l 563 1299 l 497 1299 l 353 1094 "},"":{"ha":982,"x_min":35,"x_max":972,"o":"m 176 481 q 200 622 176 558 q 267 730 224 685 q 371 800 310 775 q 507 825 432 825 q 792 533 778 825 l 935 533 q 905 711 935 631 q 820 850 875 792 q 686 940 765 908 q 507 972 607 972 q 313 937 400 972 q 165 837 226 901 q 69 682 103 772 q 35 481 35 592 q 69 280 35 371 q 165 124 103 189 q 313 24 226 60 q 507 -11 400 -11 q 671 13 594 -11 q 808 83 747 38 q 910 192 868 128 q 972 338 953 257 l 810 338 q 701 188 783 239 q 507 136 618 136 q 371 161 432 136 q 267 231 310 186 q 200 340 224 276 q 176 481 176 404 m 547 -101 q 533 -119 547 -114 q 500 -124 519 -124 q 456 -108 474 -124 q 439 -72 439 -93 l 385 -72 q 412 -140 385 -111 q 499 -169 439 -169 q 573 -151 547 -169 q 599 -104 599 -132 q 578 -64 599 -78 q 534 -40 557 -50 q 496 -19 511 -29 q 493 11 481 -8 l 447 13 q 458 -26 443 -11 q 493 -53 474 -40 q 530 -76 513 -65 q 547 -101 547 -87 "},"":{"ha":818,"x_min":35,"x_max":790,"o":"m 204 125 l 206 424 l 786 424 l 786 549 l 206 549 l 206 847 l 786 847 l 786 972 l 35 972 l 35 0 l 790 0 l 790 125 l 204 125 m 372 1246 l 517 1042 l 582 1042 l 438 1246 l 372 1246 "},"":{"ha":818,"x_min":35,"x_max":790,"o":"m 204 125 l 206 424 l 786 424 l 786 549 l 206 549 l 206 847 l 786 847 l 786 972 l 35 972 l 35 0 l 790 0 l 790 125 l 204 125 m 372 1042 l 438 1042 l 582 1246 l 517 1246 l 372 1042 "},"":{"ha":818,"x_min":35,"x_max":790,"o":"m 204 125 l 206 424 l 786 424 l 786 549 l 206 549 l 206 847 l 786 847 l 786 972 l 35 972 l 35 0 l 790 0 l 790 125 l 204 125 m 278 1042 l 343 1042 l 456 1200 l 567 1042 l 632 1042 l 488 1246 l 422 1246 l 278 1042 "},"":{"ha":818,"x_min":35,"x_max":790,"o":"m 204 125 l 206 424 l 786 424 l 786 549 l 206 549 l 206 847 l 786 847 l 786 972 l 35 972 l 35 0 l 790 0 l 790 125 l 204 125 m 335 1097 q 349 1059 335 1074 q 388 1044 364 1044 q 426 1059 411 1044 q 440 1097 440 1074 q 426 1135 440 1121 q 388 1150 411 1150 q 349 1135 364 1150 q 335 1097 335 1121 m 468 1097 q 483 1059 468 1074 q 521 1044 497 1044 q 559 1059 544 1044 q 574 1097 574 1074 q 559 1135 574 1121 q 521 1150 544 1150 q 483 1135 497 1150 q 468 1097 468 1121 "},"":{"ha":303,"x_min":63,"x_max":272,"o":"m 246 0 l 244 972 l 74 972 l 74 0 l 246 0 m 63 1246 l 207 1042 l 272 1042 l 128 1246 l 63 1246 "},"":{"ha":303,"x_min":63,"x_max":272,"o":"m 246 0 l 244 972 l 74 972 l 74 0 l 246 0 m 63 1042 l 128 1042 l 272 1246 l 207 1246 l 63 1042 "},"":{"ha":303,"x_min":-32,"x_max":322,"o":"m 246 0 l 244 972 l 74 972 l 74 0 l 246 0 m -32 1042 l 33 1042 l 146 1200 l 257 1042 l 322 1042 l 178 1246 l 113 1246 l -32 1042 "},"":{"ha":303,"x_min":25,"x_max":264,"o":"m 246 0 l 244 972 l 74 972 l 74 0 l 246 0 m 25 1097 q 40 1059 25 1074 q 78 1044 54 1044 q 116 1059 101 1044 q 131 1097 131 1074 q 116 1135 131 1121 q 78 1150 101 1150 q 40 1135 54 1150 q 25 1097 25 1121 m 158 1097 q 173 1059 158 1074 q 211 1044 188 1044 q 249 1059 235 1044 q 264 1097 264 1074 q 249 1135 264 1121 q 211 1150 235 1150 q 173 1135 188 1150 q 158 1097 158 1121 "},"":{"ha":940,"x_min":35,"x_max":911,"o":"m 732 42 l 356 972 l 35 972 l 35 0 l 203 0 l 213 908 l 581 0 l 900 0 l 911 972 l 732 972 l 732 42 m 350 1097 l 350 1057 q 370 1076 357 1071 q 400 1081 383 1081 q 470 1070 432 1081 q 540 1060 508 1060 q 590 1085 576 1060 l 590 1125 q 571 1106 583 1111 q 542 1101 558 1101 q 472 1111 510 1101 q 401 1121 433 1121 q 370 1116 383 1121 q 350 1097 357 1111 "},"":{"ha":985,"x_min":21,"x_max":963,"o":"m 21 481 q 55 280 21 371 q 151 124 89 189 q 299 24 213 60 q 493 -11 386 -11 q 685 24 599 -11 q 833 124 772 60 q 928 280 894 189 q 963 481 963 371 q 928 682 963 592 q 833 837 894 772 q 685 937 772 901 q 493 972 599 972 q 299 937 386 972 q 151 837 213 901 q 55 682 89 772 q 21 481 21 592 m 163 481 q 186 622 163 558 q 253 730 210 685 q 357 800 296 775 q 493 825 418 825 q 627 800 567 825 q 731 730 688 775 q 797 622 774 685 q 821 481 821 558 q 797 340 821 404 q 731 231 774 276 q 627 161 688 186 q 493 136 567 136 q 357 161 418 136 q 253 231 296 186 q 186 340 210 276 q 163 481 163 404 m 414 1246 l 558 1042 l 624 1042 l 479 1246 l 414 1246 "},"":{"ha":985,"x_min":21,"x_max":963,"o":"m 21 481 q 55 280 21 371 q 151 124 89 189 q 299 24 213 60 q 493 -11 386 -11 q 685 24 599 -11 q 833 124 772 60 q 928 280 894 189 q 963 481 963 371 q 928 682 963 592 q 833 837 894 772 q 685 937 772 901 q 493 972 599 972 q 299 937 386 972 q 151 837 213 901 q 55 682 89 772 q 21 481 21 592 m 163 481 q 186 622 163 558 q 253 730 210 685 q 357 800 296 775 q 493 825 418 825 q 627 800 567 825 q 731 730 688 775 q 797 622 774 685 q 821 481 821 558 q 797 340 821 404 q 731 231 774 276 q 627 161 688 186 q 493 136 567 136 q 357 161 418 136 q 253 231 296 186 q 186 340 210 276 q 163 481 163 404 m 414 1042 l 479 1042 l 624 1246 l 558 1246 l 414 1042 "},"":{"ha":985,"x_min":21,"x_max":963,"o":"m 21 481 q 55 280 21 371 q 151 124 89 189 q 299 24 213 60 q 493 -11 386 -11 q 685 24 599 -11 q 833 124 772 60 q 928 280 894 189 q 963 481 963 371 q 928 682 963 592 q 833 837 894 772 q 685 937 772 901 q 493 972 599 972 q 299 937 386 972 q 151 837 213 901 q 55 682 89 772 q 21 481 21 592 m 163 481 q 186 622 163 558 q 253 730 210 685 q 357 800 296 775 q 493 825 418 825 q 627 800 567 825 q 731 730 688 775 q 797 622 774 685 q 821 481 821 558 q 797 340 821 404 q 731 231 774 276 q 627 161 688 186 q 493 136 567 136 q 357 161 418 136 q 253 231 296 186 q 186 340 210 276 q 163 481 163 404 m 319 1042 l 385 1042 l 497 1200 l 608 1042 l 674 1042 l 529 1246 l 464 1246 l 319 1042 "},"":{"ha":985,"x_min":21,"x_max":963,"o":"m 21 481 q 55 280 21 371 q 151 124 89 189 q 299 24 213 60 q 493 -11 386 -11 q 685 24 599 -11 q 833 124 772 60 q 928 280 894 189 q 963 481 963 371 q 928 682 963 592 q 833 837 894 772 q 685 937 772 901 q 493 972 599 972 q 299 937 386 972 q 151 837 213 901 q 55 682 89 772 q 21 481 21 592 m 163 481 q 186 622 163 558 q 253 730 210 685 q 357 800 296 775 q 493 825 418 825 q 627 800 567 825 q 731 730 688 775 q 797 622 774 685 q 821 481 821 558 q 797 340 821 404 q 731 231 774 276 q 627 161 688 186 q 493 136 567 136 q 357 161 418 136 q 253 231 296 186 q 186 340 210 276 q 163 481 163 404 m 374 1097 l 374 1057 q 394 1076 381 1071 q 424 1081 407 1081 q 494 1070 456 1081 q 564 1060 532 1060 q 614 1085 600 1060 l 614 1125 q 594 1106 607 1111 q 565 1101 582 1101 q 495 1111 533 1101 q 425 1121 457 1121 q 394 1116 407 1121 q 374 1097 381 1111 "},"":{"ha":985,"x_min":21,"x_max":963,"o":"m 21 481 q 55 280 21 371 q 151 124 89 189 q 299 24 213 60 q 493 -11 386 -11 q 685 24 599 -11 q 833 124 772 60 q 928 280 894 189 q 963 481 963 371 q 928 682 963 592 q 833 837 894 772 q 685 937 772 901 q 493 972 599 972 q 299 937 386 972 q 151 837 213 901 q 55 682 89 772 q 21 481 21 592 m 163 481 q 186 622 163 558 q 253 730 210 685 q 357 800 296 775 q 493 825 418 825 q 627 800 567 825 q 731 730 688 775 q 797 622 774 685 q 821 481 821 558 q 797 340 821 404 q 731 231 774 276 q 627 161 688 186 q 493 136 567 136 q 357 161 418 136 q 253 231 296 186 q 186 340 210 276 q 163 481 163 404 m 376 1097 q 391 1059 376 1074 q 429 1044 406 1044 q 467 1059 453 1044 q 482 1097 482 1074 q 467 1135 482 1121 q 429 1150 453 1150 q 391 1135 406 1150 q 376 1097 376 1121 m 510 1097 q 524 1059 510 1074 q 563 1044 539 1044 q 601 1059 586 1044 q 615 1097 615 1074 q 601 1135 615 1121 q 563 1150 586 1150 q 524 1135 539 1150 q 510 1097 510 1121 "},"":{"ha":985,"x_min":21,"x_max":963,"o":"m 21 481 q 55 280 21 371 q 151 124 89 189 q 299 24 213 60 q 493 -11 386 -11 q 685 24 599 -11 q 833 124 772 60 q 928 280 894 189 q 963 481 963 371 q 928 682 963 592 q 833 837 894 772 q 685 937 772 901 q 493 972 599 972 q 299 937 386 972 q 151 837 213 901 q 55 682 89 772 q 21 481 21 592 m 163 481 q 186 622 163 558 q 253 730 210 685 q 357 800 296 775 q 493 825 418 825 q 627 800 567 825 q 731 730 688 775 q 797 622 774 685 q 821 481 821 558 q 797 340 821 404 q 731 231 774 276 q 627 161 688 186 q 493 136 567 136 q 357 161 418 136 q 253 231 296 186 q 186 340 210 276 q 163 481 163 404 m 821 971 l 713 971 l 165 0 l 274 0 l 821 971 "},"":{"ha":872,"x_min":61,"x_max":814,"o":"m 231 382 l 231 969 l 61 969 l 61 365 q 93 205 61 274 q 178 90 125 136 q 298 22 231 44 q 436 -1 365 -1 q 575 22 507 -1 q 696 90 643 44 q 781 205 749 136 q 814 365 814 274 l 814 969 l 644 969 l 644 382 q 627 277 644 322 q 581 202 610 232 q 516 158 553 172 q 440 143 479 143 q 364 158 401 143 q 297 203 326 174 q 249 278 267 233 q 231 382 231 322 m 333 1246 l 478 1042 l 543 1042 l 399 1246 l 333 1246 "},"":{"ha":872,"x_min":61,"x_max":814,"o":"m 231 382 l 231 969 l 61 969 l 61 365 q 93 205 61 274 q 178 90 125 136 q 298 22 231 44 q 436 -1 365 -1 q 575 22 507 -1 q 696 90 643 44 q 781 205 749 136 q 814 365 814 274 l 814 969 l 644 969 l 644 382 q 627 277 644 322 q 581 202 610 232 q 516 158 553 172 q 440 143 479 143 q 364 158 401 143 q 297 203 326 174 q 249 278 267 233 q 231 382 231 322 m 333 1042 l 399 1042 l 543 1246 l 478 1246 l 333 1042 "},"":{"ha":872,"x_min":61,"x_max":814,"o":"m 231 382 l 231 969 l 61 969 l 61 365 q 93 205 61 274 q 178 90 125 136 q 298 22 231 44 q 436 -1 365 -1 q 575 22 507 -1 q 696 90 643 44 q 781 205 749 136 q 814 365 814 274 l 814 969 l 644 969 l 644 382 q 627 277 644 322 q 581 202 610 232 q 516 158 553 172 q 440 143 479 143 q 364 158 401 143 q 297 203 326 174 q 249 278 267 233 q 231 382 231 322 m 239 1042 l 304 1042 l 417 1200 l 528 1042 l 593 1042 l 449 1246 l 383 1246 l 239 1042 "},"":{"ha":872,"x_min":61,"x_max":814,"o":"m 231 382 l 231 969 l 61 969 l 61 365 q 93 205 61 274 q 178 90 125 136 q 298 22 231 44 q 436 -1 365 -1 q 575 22 507 -1 q 696 90 643 44 q 781 205 749 136 q 814 365 814 274 l 814 969 l 644 969 l 644 382 q 627 277 644 322 q 581 202 610 232 q 516 158 553 172 q 440 143 479 143 q 364 158 401 143 q 297 203 326 174 q 249 278 267 233 q 231 382 231 322 m 296 1097 q 310 1059 296 1074 q 349 1044 325 1044 q 387 1059 372 1044 q 401 1097 401 1074 q 387 1135 401 1121 q 349 1150 372 1150 q 310 1135 325 1150 q 296 1097 296 1121 m 429 1097 q 444 1059 429 1074 q 482 1044 458 1044 q 520 1059 506 1044 q 535 1097 535 1074 q 520 1135 535 1121 q 482 1150 506 1150 q 444 1135 458 1150 q 429 1097 429 1121 "},"":{"ha":786,"x_min":54,"x_max":703,"o":"m 542 331 l 703 972 l 528 972 l 378 367 l 229 972 l 54 972 l 213 331 l 292 331 l 292 0 l 463 0 l 463 331 l 542 331 m 299 1042 l 364 1042 l 508 1246 l 443 1246 l 299 1042 "},"":{"ha":786,"x_min":54,"x_max":703,"o":"m 542 331 l 703 972 l 528 972 l 378 367 l 229 972 l 54 972 l 213 331 l 292 331 l 292 0 l 463 0 l 463 331 l 542 331 m 261 1097 q 276 1059 261 1074 q 314 1044 290 1044 q 352 1059 338 1044 q 367 1097 367 1074 q 352 1135 367 1121 q 314 1150 338 1150 q 276 1135 290 1150 q 261 1097 261 1121 m 394 1097 q 409 1059 394 1074 q 447 1044 424 1044 q 485 1059 471 1044 q 500 1097 500 1074 q 485 1135 500 1121 q 447 1150 471 1150 q 409 1135 424 1150 q 394 1097 394 1121 "}}}
